<?xml version="1.0" standalone="no"?>
<!DOCTYPE svg PUBLIC "-//W3C//DTD SVG 20010904//EN"
 "http://www.w3.org/TR/2001/REC-SVG-20010904/DTD/svg10.dtd">
<svg version="1.0" xmlns="http://www.w3.org/2000/svg"
 width="752.000000pt" height="752.000000pt" viewBox="0 0 752.000000 752.000000"
 preserveAspectRatio="xMidYMid meet">

<g transform="translate(0.000000,752.000000) scale(0.100000,-0.100000)"
fill="#000000" stroke="none">
<path d="M2356 5892 c-18 -29 -31 -170 -31 -332 l0 -185 43 -125 c42 -121 44
-128 38 -211 -4 -51 -2 -97 4 -113 5 -15 41 -58 80 -95 l70 -67 0 -112 c0
-128 9 -159 65 -221 46 -51 126 -89 232 -110 46 -10 87 -21 91 -27 5 -5 19
-49 32 -99 12 -49 37 -127 55 -172 l33 -81 -70 33 c-39 19 -123 46 -187 61
-130 30 -197 56 -261 103 -24 17 -49 31 -57 31 -8 0 -13 12 -13 36 0 75 -97
123 -157 76 -83 -63 -7 -205 92 -172 19 6 37 16 40 21 11 16 31 10 91 -29 78
-50 121 -67 256 -97 123 -27 237 -77 280 -122 15 -15 52 -70 83 -121 49 -82
128 -196 196 -285 l21 -28 -52 21 c-68 27 -68 27 -248 132 -261 153 -383 202
-581 234 -48 8 -116 14 -152 14 -109 0 -254 -31 -246 -53 2 -7 75 -55 162
-107 87 -52 167 -106 177 -120 10 -14 23 -54 29 -90 5 -36 18 -76 28 -90 23
-32 100 -59 171 -60 79 0 112 -24 156 -112 52 -106 79 -137 143 -167 186 -86
398 44 454 280 6 27 15 48 18 47 3 -2 49 -49 100 -104 52 -56 144 -148 204
-205 61 -57 112 -107 113 -111 2 -4 -14 -8 -36 -8 -22 0 -83 -11 -136 -25 -53
-14 -123 -25 -155 -25 -51 0 -66 5 -112 36 -86 58 -149 42 -149 -37 0 -47 30
-79 75 -79 32 0 75 34 75 59 0 9 6 11 18 6 9 -4 37 -11 62 -16 49 -10 83 -5
214 30 44 12 105 21 136 21 55 0 61 -3 123 -54 l65 -53 -86 -5 c-67 -4 -106
-13 -167 -38 -113 -46 -209 -70 -280 -70 -48 0 -68 -5 -89 -21 -50 -39 -22
-122 42 -122 47 0 74 29 70 74 l-3 37 55 5 c30 3 109 25 175 50 213 80 299 75
436 -26 46 -34 140 -98 207 -142 115 -75 121 -80 95 -86 -56 -13 -158 -8 -368
16 -179 21 -227 24 -281 15 -88 -14 -114 -29 -209 -120 -93 -89 -129 -105
-230 -102 -143 3 -228 -29 -308 -118 -46 -51 -84 -137 -73 -165 4 -12 11 -12
47 0 23 8 63 15 90 15 42 0 53 -5 87 -37 33 -32 45 -55 70 -139 35 -112 62
-158 111 -191 67 -45 123 -28 300 91 213 144 317 241 413 391 54 83 73 125
103 225 l23 75 158 7 158 6 132 -71 132 -72 -56 -17 c-70 -21 -152 -78 -187
-129 -25 -36 -31 -39 -61 -33 -45 8 -74 -22 -74 -76 0 -81 82 -119 136 -64 26
25 28 52 10 109 -10 30 50 95 124 134 88 47 167 53 235 18 86 -43 356 -147
366 -141 22 13 -3 27 -141 83 -251 101 -247 99 -264 140 -19 48 -46 180 -46
224 0 19 14 61 30 95 54 107 148 171 293 198 118 22 161 45 188 101 19 40 21
55 15 128 -8 104 -36 196 -74 244 -44 54 -52 75 -52 128 0 60 -16 84 -80 119
-35 19 -52 35 -56 53 -15 67 -19 67 -66 -7 -20 -31 -69 -93 -108 -137 -88 -97
-111 -137 -143 -240 -50 -160 -60 -228 -55 -364 4 -109 9 -138 37 -216 18 -49
36 -119 41 -154 6 -36 17 -88 25 -117 8 -29 15 -55 15 -59 0 -8 -223 107 -330
172 -89 53 -95 63 -105 170 -7 73 6 170 32 235 12 29 21 38 39 38 31 0 64 33
64 65 0 31 -41 75 -70 75 -24 0 -60 -33 -60 -56 0 -8 4 -23 9 -33 7 -12 2 -37
-17 -87 -23 -61 -26 -84 -26 -196 -1 -81 -5 -124 -11 -120 -60 34 -249 170
-257 185 -14 26 -2 157 21 241 33 119 91 194 206 267 70 44 120 94 155 157 16
29 44 55 87 82 107 67 116 122 54 363 -47 182 -72 260 -86 264 -5 2 -21 -18
-35 -44 -17 -33 -51 -67 -110 -113 -113 -88 -138 -125 -149 -220 -5 -41 -12
-82 -15 -90 -11 -24 -45 -44 -122 -74 -39 -15 -89 -42 -110 -60 -74 -63 -124
-185 -124 -302 0 -90 52 -249 120 -363 16 -28 27 -51 25 -51 -9 0 -213 175
-318 272 -59 55 -153 149 -208 210 l-102 110 49 21 c128 53 268 176 335 293
54 95 101 139 180 169 41 16 77 38 90 53 22 28 22 44 3 158 -6 37 -2 49 35
109 47 80 55 109 49 207 -7 142 -80 250 -282 423 -69 58 -152 135 -185 171
-33 36 -65 63 -70 59 -16 -9 -14 -101 5 -250 19 -156 13 -202 -46 -324 -53
-109 -68 -164 -85 -311 -17 -147 -32 -201 -90 -330 -47 -106 -61 -150 -79
-255 l-12 -70 -93 140 c-109 162 -186 317 -229 460 -49 163 -49 153 3 160 62
10 124 52 178 122 122 159 171 316 147 468 -22 137 -60 193 -224 328 -59 49
-72 75 -96 192 -21 105 -42 147 -97 196 -52 45 -105 66 -253 99 -72 17 -148
39 -170 50 -56 29 -111 79 -127 117 -13 32 -27 41 -37 25z m41 -91 c34 -54
146 -103 321 -141 103 -22 179 -58 228 -108 32 -33 46 -74 74 -214 14 -73 50
-121 138 -187 132 -97 177 -196 170 -369 -3 -93 -6 -102 -55 -202 -80 -163
-169 -250 -256 -250 -34 0 -36 2 -46 50 -32 147 -75 509 -90 753 -8 130 -22
183 -37 144 -14 -37 28 -477 72 -766 14 -90 23 -165 21 -168 -10 -9 -134 20
-189 44 -67 30 -130 93 -148 148 -8 25 -10 61 -6 106 11 104 -4 143 -79 214
-65 61 -90 103 -80 135 3 10 6 48 6 84 1 53 -8 91 -42 189 -37 109 -42 135
-47 238 -4 111 13 319 27 319 3 0 12 -9 18 -19z m1382 -961 c150 -295 170
-537 61 -749 -12 -24 -77 -100 -144 -170 -135 -139 -207 -245 -252 -368 -31
-85 -44 -81 -44 12 0 77 28 179 84 303 56 125 62 149 86 332 16 128 24 163 56
233 89 198 95 239 69 422 -8 55 -15 114 -14 130 l0 30 25 -40 c14 -22 47 -83
73 -135z m116 -21 c127 -108 196 -186 236 -267 31 -60 34 -76 34 -152 0 -88
-6 -109 -61 -195 -22 -35 -24 -48 -20 -100 4 -33 9 -74 12 -92 8 -42 -17 -66
-91 -88 -69 -20 -131 -77 -190 -175 -56 -93 -99 -144 -169 -197 -63 -47 -183
-110 -193 -100 -8 8 25 103 62 177 47 93 107 170 226 290 151 152 199 261 199
457 0 139 -33 272 -111 441 -21 45 -36 82 -33 82 3 0 47 -36 99 -81z m764
-957 c60 -236 56 -259 -44 -327 -41 -28 -73 -61 -102 -105 -47 -72 -74 -97
-148 -139 -68 -39 -140 -119 -176 -195 -29 -62 -58 -174 -59 -231 -1 -29 -2
-29 -11 -6 -22 54 -31 162 -20 229 20 119 58 180 199 316 208 202 234 251 283
519 12 70 26 122 30 115 3 -7 25 -86 48 -176z m-109 72 c-19 -114 -50 -224
-77 -278 -17 -34 -76 -101 -172 -198 -94 -95 -157 -168 -178 -206 -43 -76 -65
-168 -61 -248 4 -80 -7 -69 -53 55 -42 112 -45 232 -9 326 32 85 103 152 193
184 108 38 147 80 147 163 1 51 21 111 47 140 25 29 165 139 170 134 2 -2 -1
-35 -7 -72z m-2021 -135 c84 -13 240 -63 316 -101 33 -17 119 -66 191 -108
146 -87 250 -141 307 -159 100 -33 -49 -43 -178 -12 -129 31 -325 104 -638
235 -160 68 -302 126 -315 130 -86 28 164 39 317 15z m126 -234 c426 -175 628
-228 731 -188 46 18 -32 -164 -101 -232 -61 -62 -114 -85 -195 -85 -114 0
-173 43 -232 166 -16 34 -44 76 -62 93 -31 30 -43 34 -137 46 -121 16 -143 32
-154 112 -15 110 -32 133 -151 199 -35 20 -64 37 -64 39 0 3 37 -12 83 -31 45
-20 172 -73 282 -119z m2486 -1 c7 -8 26 -22 43 -31 84 -42 96 -87 42 -158
-25 -33 -39 -65 -51 -122 -30 -144 -49 -178 -175 -323 -70 -80 -122 -160 -142
-220 l-15 -45 -14 60 c-8 35 -14 113 -14 185 0 111 4 138 33 239 43 149 74
205 177 321 47 52 85 98 85 103 0 12 17 8 31 -9z m162 -256 c50 -73 63 -109
76 -210 21 -162 -8 -202 -167 -229 -137 -24 -226 -75 -294 -168 -39 -55 -40
-55 -33 -21 14 68 53 127 188 286 74 88 102 142 127 249 20 87 44 145 59 145
4 0 24 -24 44 -52z m-1225 -850 c56 -6 102 -14 102 -17 -1 -3 -21 -19 -46 -35
-43 -27 -62 -49 -147 -165 -50 -69 -74 -82 -167 -92 -96 -9 -113 -19 -160 -87
-62 -91 -120 -88 -231 15 -115 105 -166 119 -284 78 -14 -5 -11 1 10 19 57 49
93 60 225 67 74 4 139 12 161 21 19 9 76 53 126 100 50 47 105 89 124 95 47
15 164 15 287 1z m152 -46 c0 -19 -44 -140 -67 -187 -90 -176 -234 -322 -476
-479 -212 -138 -265 -125 -332 86 -37 119 -67 168 -117 194 -34 18 -108 22
-147 10 -23 -8 -23 -8 -6 21 27 45 79 76 139 81 69 6 110 -14 185 -88 104
-102 192 -116 253 -38 73 92 79 96 154 102 97 9 148 37 201 111 74 103 105
137 152 166 47 30 61 35 61 21z"/>
</g>
</svg>
