<?xml version="1.0" standalone="no"?>
<!DOCTYPE svg PUBLIC "-//W3C//DTD SVG 20010904//EN"
 "http://www.w3.org/TR/2001/REC-SVG-20010904/DTD/svg10.dtd">
<svg version="1.0" xmlns="http://www.w3.org/2000/svg"
 width="752.000000pt" height="752.000000pt" viewBox="0 0 752.000000 752.000000"
 preserveAspectRatio="xMidYMid meet">

<g transform="translate(0.000000,752.000000) scale(0.100000,-0.100000)"
fill="#000000" stroke="none">
<path d="M5135 5793 c-61 -54 -139 -104 -260 -167 -226 -119 -333 -208 -397
-331 -41 -79 -83 -222 -128 -437 -46 -217 -95 -353 -85 -233 2 33 9 123 15
200 15 192 36 372 66 550 31 190 36 206 68 238 33 33 33 71 1 102 -31 32 -69
32 -100 0 -42 -41 -32 -88 28 -128 18 -12 18 -16 -2 -119 -38 -199 -77 -537
-96 -849 l-7 -106 -73 -98 c-40 -54 -97 -138 -127 -186 l-55 -88 4 147 c5 185
13 223 70 347 92 201 97 219 96 335 0 93 -5 120 -41 241 -68 226 -182 519
-201 519 -11 0 -44 -84 -65 -166 -39 -154 -31 -304 38 -676 90 -483 100 -592
71 -743 -10 -52 -29 -105 -62 -165 -26 -49 -48 -88 -49 -87 -1 1 4 36 12 77
19 106 18 274 -2 341 -27 90 -71 165 -138 237 -60 63 -63 69 -49 87 16 23 12
87 -7 110 -19 23 -53 18 -88 -14 -41 -38 -43 -81 -6 -110 15 -12 37 -21 49
-21 29 0 147 -125 181 -192 61 -121 71 -279 29 -485 -23 -111 -33 -138 -102
-271 -129 -250 -235 -443 -240 -439 -2 3 3 29 11 58 46 164 91 483 81 578 -9
81 -24 124 -74 207 -51 84 -52 118 -9 199 26 48 32 72 32 120 1 86 -30 144
-123 230 -141 131 -178 171 -207 226 -25 47 -33 54 -59 54 -29 0 -33 -7 -118
-175 -48 -96 -95 -199 -104 -229 -24 -85 -15 -162 32 -251 37 -71 39 -80 41
-177 3 -138 17 -166 155 -310 197 -206 262 -330 262 -508 1 -148 -15 -193
-138 -398 -58 -97 -108 -177 -109 -177 -2 0 3 26 10 58 18 75 17 269 -1 357
-8 39 -24 97 -36 131 l-21 61 27 27 c22 22 26 33 21 58 -12 62 -47 73 -115 38
-75 -38 -69 -103 12 -119 29 -6 34 -13 55 -71 43 -119 55 -202 50 -344 -7
-169 -24 -223 -139 -434 -82 -149 -167 -292 -174 -292 -1 0 11 44 27 98 70
236 99 463 78 623 -22 171 -62 270 -181 444 -75 111 -115 197 -127 275 -4 28
-11 52 -17 53 -13 3 -79 -196 -101 -302 -19 -96 -15 -205 10 -286 9 -27 36
-86 62 -130 75 -131 113 -209 120 -251 3 -22 7 -114 7 -204 2 -163 2 -166 34
-236 18 -39 35 -88 39 -110 6 -38 4 -41 -71 -117 -94 -96 -204 -179 -313 -235
-45 -24 -82 -47 -82 -52 0 -13 57 13 147 66 97 57 137 89 245 192 102 97 170
132 410 213 84 28 159 56 166 62 8 6 27 10 43 9 32 -3 69 27 69 56 0 26 -32
52 -63 52 -33 0 -60 -38 -52 -73 7 -28 -4 -34 -196 -97 -64 -21 -150 -54 -192
-73 l-77 -36 50 74 c27 40 76 122 110 183 l61 111 72 17 c55 13 108 17 231 15
186 -2 222 6 341 75 111 64 139 72 283 84 234 19 283 60 477 400 68 118 120
219 117 224 -9 15 -203 -2 -303 -28 -174 -44 -397 -148 -653 -303 -138 -84
-222 -151 -341 -275 -111 -115 -181 -175 -191 -165 -3 3 63 120 148 260 l153
254 115 75 c157 103 286 177 414 239 98 48 111 52 138 41 37 -14 68 -3 97 34
40 51 19 134 -33 134 -27 0 -74 -57 -82 -97 -6 -33 -13 -38 -93 -76 -110 -51
-241 -124 -361 -200 -52 -33 -111 -69 -130 -81 l-35 -21 35 60 c19 33 71 128
116 210 140 257 134 248 187 274 43 21 68 25 225 31 200 9 226 16 342 87 83
52 280 242 372 358 89 113 218 294 218 305 0 13 -22 12 -100 -4 -151 -33 -274
-113 -492 -322 -183 -176 -260 -237 -373 -295 -44 -23 -110 -61 -148 -85 l-67
-44 31 63 c17 34 67 130 111 214 l81 152 349 202 c259 149 352 199 361 190 22
-22 55 -12 84 25 l27 36 -32 29 c-18 16 -38 29 -45 29 -25 0 -49 -26 -56 -60
-6 -33 -20 -42 -296 -203 -160 -92 -307 -177 -328 -188 l-38 -20 17 33 c25 49
155 244 208 312 30 39 72 76 123 109 129 82 257 196 456 407 227 240 348 442
391 652 17 80 22 213 9 221 -5 3 -26 -11 -48 -30z m21 -181 c-33 -159 -122
-333 -253 -496 -150 -188 -436 -461 -578 -552 -37 -24 -53 -51 191 311 209
311 258 376 408 542 90 98 144 175 207 290 l34 62 3 -43 c2 -23 -4 -75 -12
-114z m-46 98 c-41 -80 -108 -175 -179 -255 -172 -193 -223 -260 -417 -546
-112 -166 -204 -298 -204 -292 0 5 7 29 15 54 8 24 33 126 55 225 97 445 157
531 488 703 66 34 151 84 189 110 37 26 69 47 71 45 2 -1 -6 -21 -18 -44z
m-743 -2 c-17 -6 -35 -23 -43 -42 -11 -26 -13 -28 -14 -8 0 29 34 62 63 61 19
0 19 -2 -6 -11z m-399 -145 c67 -170 148 -426 163 -509 20 -116 -2 -224 -76
-374 -18 -36 -43 -94 -56 -130 l-24 -65 -8 50 c-5 28 -30 172 -57 320 -75 411
-83 536 -45 702 15 64 40 133 49 133 2 0 27 -57 54 -127z m427 107 c0 -9 -11
-16 -28 -18 -26 -3 -28 -2 -17 18 13 23 45 23 45 0z m3 -46 c-11 -11 -23 -14
-35 -9 -16 7 -15 9 7 15 40 12 45 11 28 -6z m-1212 -816 c15 -29 56 -79 96
-117 190 -178 212 -208 224 -295 5 -36 0 -57 -30 -123 -49 -108 -47 -139 9
-233 25 -41 51 -93 57 -115 17 -57 14 -210 -6 -345 -18 -120 -74 -370 -83
-370 -3 0 -3 15 1 33 18 100 25 237 17 335 -17 192 -26 225 -207 744 -53 153
-110 380 -120 479 -8 84 2 86 42 7z m-32 -179 c28 -123 82 -296 149 -480 119
-324 150 -464 149 -674 0 -77 -5 -160 -10 -185 l-9 -45 -7 40 c-30 183 -90
286 -287 490 -55 58 -107 121 -116 142 -10 24 -16 74 -18 138 -2 95 -4 104
-43 185 -68 138 -61 188 70 458 l81 167 12 -81 c7 -44 20 -114 29 -155z m480
85 c25 -9 19 -24 -9 -24 -16 0 -25 6 -25 15 0 16 9 19 34 9z m-57 -44 c-1 -23
-4 -34 -9 -27 -13 21 -8 67 8 67 2 0 2 -18 1 -40z m73 -15 c0 -8 -4 -15 -9
-15 -5 0 -14 7 -21 15 -10 13 -9 15 9 15 12 0 21 -6 21 -15z m1052 -133 c-18
-3 -23 -8 -19 -23 3 -12 0 -19 -9 -19 -20 0 -18 37 3 48 9 6 24 7 32 4 12 -5
10 -8 -7 -10z m1 -69 c-7 -2 -19 -2 -25 0 -7 3 -2 5 12 5 14 0 19 -2 13 -5z
m162 -120 c-119 -186 -390 -493 -510 -578 -133 -94 -168 -105 -380 -115 -93
-4 -179 -11 -190 -15 -38 -14 50 42 150 94 131 69 198 122 381 295 217 207
314 276 449 319 43 14 64 19 109 26 4 0 0 -11 -9 -26z m-2257 -887 c1 -160 32
-268 137 -471 80 -156 99 -234 90 -365 -4 -52 -11 -117 -17 -145 -6 -27 -13
-104 -17 -170 l-6 -120 -25 60 c-23 56 -25 73 -27 240 -1 211 -3 216 -102 390
-38 66 -77 142 -86 170 -36 109 -29 259 21 417 14 43 26 78 28 78 2 0 4 -38 4
-84z m151 -170 c95 -145 124 -207 154 -325 29 -119 29 -322 -1 -476 -21 -108
-76 -312 -87 -323 -12 -12 -4 205 11 296 9 53 17 147 18 207 1 132 -7 161
-104 355 -37 74 -77 165 -88 201 -23 75 -45 242 -35 277 5 20 9 15 28 -33 13
-30 59 -111 104 -179z m1380 210 c10 -12 8 -13 -8 -9 -30 8 -54 -15 -46 -44 5
-23 -17 -44 -32 -30 -10 10 18 67 41 82 25 19 31 19 45 1z m-5 -35 c3 -5 -1
-14 -8 -20 -16 -13 -32 2 -21 19 8 12 22 13 29 1z m-15 -72 c-8 -5 -25 -8 -39
-8 -24 1 -24 1 5 14 31 14 57 9 34 -6z m-1047 -5 c-24 -17 -29 -53 -10 -72 9
-9 8 -12 -8 -12 -51 0 -58 52 -11 80 38 24 61 27 29 4z m62 -26 c8 -14 7 -21
-6 -34 -16 -16 -17 -16 -11 5 4 17 1 24 -16 28 -11 3 -18 10 -15 15 9 13 35 6
48 -14z m1393 -150 c-13 -24 -57 -101 -98 -173 -96 -171 -137 -231 -193 -283
-70 -64 -114 -80 -257 -92 -151 -13 -169 -18 -289 -85 -52 -30 -114 -58 -136
-64 -24 -6 -110 -10 -200 -9 -88 1 -173 -1 -191 -5 -28 -7 -11 13 112 134 158
155 205 193 352 285 344 214 640 328 866 333 l59 1 -25 -42z m-1080 -20 c-3
-8 -6 -5 -6 6 -1 11 2 17 5 13 3 -3 4 -12 1 -19z m-87 -858 c0 -5 -4 -10 -10
-10 -5 0 -10 5 -10 10 0 6 5 10 10 10 6 0 10 -4 10 -10z m10 -50 c0 -5 -7 -10
-16 -10 -8 0 -12 5 -9 10 3 6 10 10 16 10 5 0 9 -4 9 -10z"/>
</g>
</svg>
