<?xml version="1.0" standalone="no"?>
<!DOCTYPE svg PUBLIC "-//W3C//DTD SVG 20010904//EN"
 "http://www.w3.org/TR/2001/REC-SVG-20010904/DTD/svg10.dtd">
<svg version="1.0" xmlns="http://www.w3.org/2000/svg"
 width="752.000000pt" height="752.000000pt" viewBox="0 0 752.000000 752.000000"
 preserveAspectRatio="xMidYMid meet">

<g transform="translate(0.000000,752.000000) scale(0.100000,-0.100000)"
fill="#000000" stroke="none">
<path d="M2589 5887 c-19 -12 -44 -42 -57 -67 -50 -95 -9 -214 122 -358 41
-46 77 -91 80 -100 11 -38 48 -264 43 -268 -2 -3 -51 31 -109 74 -57 43 -119
87 -137 98 -24 13 -42 37 -61 80 -31 68 -79 128 -121 150 -36 18 -112 18 -148
-1 -28 -14 -61 -68 -61 -100 0 -9 15 -32 33 -50 43 -43 127 -68 233 -69 76 -1
84 -3 140 -40 77 -51 204 -148 226 -172 11 -12 22 -59 32 -132 25 -179 27
-175 -47 -106 -34 33 -83 70 -109 84 -40 21 -48 31 -58 67 -27 111 -179 199
-274 159 -66 -27 -76 -98 -23 -151 42 -42 125 -67 234 -70 90 -3 128 -19 208
-88 83 -71 92 -95 105 -257 15 -186 15 -792 0 -885 -6 -38 -25 -128 -42 -198
-30 -127 -30 -128 -50 -110 -62 56 -222 344 -279 501 -22 63 -22 64 -5 120 10
31 31 89 48 129 26 65 36 76 98 121 83 61 128 129 114 171 -13 36 -66 62 -106
50 -73 -20 -104 -84 -94 -188 5 -61 3 -72 -42 -185 l-47 -119 -18 59 c-23 75
-47 224 -47 290 0 30 12 89 30 142 17 50 30 107 30 127 0 167 -202 202 -218
37 -5 -58 8 -87 83 -187 52 -68 53 -72 60 -155 6 -73 30 -207 50 -276 7 -21
-185 164 -244 236 -59 73 -116 95 -176 68 -56 -25 -40 -92 33 -135 40 -24 50
-25 120 -20 l77 6 107 -110 c93 -97 110 -119 128 -172 50 -151 203 -431 277
-509 l36 -36 -27 -139 c-43 -231 -76 -534 -76 -705 0 -37 -4 -68 -9 -68 -15 0
-108 97 -162 169 -46 59 -49 68 -49 122 0 92 48 219 82 219 5 0 32 10 59 21
60 26 89 68 63 93 -18 19 -24 19 -57 7 -21 -8 -23 -7 -20 14 11 55 -46 89 -69
40 -9 -19 -14 -22 -29 -15 -25 14 -45 12 -63 -6 -29 -28 -19 -65 29 -114 l46
-46 -22 -49 c-12 -27 -27 -80 -33 -118 l-12 -70 -61 99 c-33 54 -73 123 -87
151 -26 52 -26 54 -12 122 8 38 24 105 36 149 19 70 26 84 58 106 61 42 122
131 122 176 0 34 -44 70 -86 70 -47 0 -99 -50 -110 -106 -6 -32 2 -101 17
-149 2 -5 -12 -73 -31 -149 l-34 -139 -20 44 c-24 57 -70 243 -95 389 l-20
115 31 24 c52 42 85 140 56 169 -15 15 -58 16 -58 1 0 -7 -11 0 -25 15 -13 14
-35 26 -49 26 -27 0 -56 -23 -56 -46 0 -9 -11 -14 -35 -14 -54 0 -87 -46 -69
-95 9 -21 67 -50 134 -65 l55 -12 24 -137 c12 -75 25 -149 28 -164 l6 -29 -49
35 c-27 19 -65 43 -84 52 -19 10 -59 42 -88 71 -29 29 -66 55 -82 59 -41 9
-84 -2 -106 -26 -17 -19 -17 -23 -3 -47 35 -63 124 -89 205 -60 30 11 37 8
106 -35 41 -25 82 -55 92 -66 10 -11 32 -62 50 -114 l31 -93 -46 17 c-25 10
-74 21 -110 25 -51 5 -70 12 -94 35 -39 36 -79 51 -137 50 -119 0 -180 -98
-95 -152 44 -28 116 -20 207 22 63 29 76 31 130 26 34 -4 83 -16 111 -28 42
-18 54 -30 76 -73 99 -195 334 -512 394 -531 16 -5 19 -16 19 -62 0 -62 6 -52
-274 -461 -54 -78 -96 -147 -94 -153 2 -5 57 69 122 166 66 98 140 195 165
217 57 49 149 104 259 152 l83 36 27 -20 c73 -54 388 -146 607 -178 116 -16
121 -18 157 -54 21 -21 49 -61 64 -90 25 -49 27 -62 25 -160 -2 -80 2 -114 13
-137 32 -61 98 -80 136 -39 15 16 20 35 20 75 0 85 -51 163 -117 179 -17 5
-31 22 -47 58 -13 28 -39 72 -59 98 l-35 46 96 4 c93 5 99 4 149 -25 29 -17
71 -47 94 -66 36 -32 41 -42 43 -81 2 -55 31 -107 76 -137 62 -43 100 -26 100
44 0 35 -6 48 -33 76 -19 18 -56 41 -83 52 -27 10 -67 34 -89 54 -22 20 -57
47 -78 60 -21 13 -35 26 -32 29 3 3 63 16 133 28 70 12 141 25 158 29 26 6 32
3 42 -20 21 -45 102 -125 128 -125 50 0 80 62 54 110 -8 15 -6 21 10 30 17 9
20 19 18 48 -3 32 -7 38 -35 46 -28 9 -31 13 -26 38 4 23 1 29 -18 37 -48 17
-122 -40 -146 -113 -8 -26 -17 -31 -64 -42 -124 -28 -338 -55 -419 -52 l-85 3
45 27 c25 14 76 48 113 76 56 41 78 51 125 56 74 9 121 33 149 75 33 49 30 95
-7 133 -48 47 -92 30 -149 -61 -16 -25 -35 -65 -42 -89 -14 -50 -46 -79 -180
-165 l-86 -56 -94 14 c-52 8 -128 21 -168 30 -40 8 -75 15 -79 15 -4 0 18 14
48 31 30 16 76 48 102 69 53 46 62 47 103 20 38 -25 87 -26 108 -2 22 24 21
48 -2 69 -19 16 -19 17 -1 40 10 14 16 31 14 38 -8 20 -40 28 -63 16 -28 -15
-31 -14 -31 13 0 24 -23 56 -40 56 -5 0 -18 -12 -29 -26 -17 -21 -21 -41 -21
-94 l0 -67 -50 -47 c-28 -26 -79 -61 -113 -77 l-63 -29 -85 25 c-111 34 -207
71 -243 95 l-30 19 25 10 c13 5 76 32 139 61 63 28 153 67 199 86 121 50 174
79 281 149 113 74 171 105 294 152 107 41 139 42 214 8 92 -42 157 -98 172
-147 53 -178 180 -279 255 -203 31 30 32 74 4 132 -38 79 -115 123 -213 123
-40 0 -55 6 -90 35 -44 36 -151 95 -173 95 -37 0 0 20 107 59 76 28 128 41
143 37 13 -3 85 -46 159 -95 133 -88 136 -91 152 -143 43 -133 138 -240 201
-224 30 8 72 51 78 82 7 39 -11 95 -41 128 -37 39 -94 63 -175 71 -64 7 -76
13 -195 91 -70 46 -135 89 -146 97 -16 11 1 18 145 62 90 26 178 48 196 48 43
-1 136 -45 199 -94 44 -33 56 -50 70 -96 19 -60 76 -154 117 -191 34 -31 98
-40 132 -18 40 26 48 60 30 117 -32 96 -142 168 -241 156 -34 -3 -47 0 -60 14
-27 30 -123 90 -173 110 l-46 17 40 11 c77 20 225 51 245 51 22 0 165 -86 262
-157 49 -37 59 -50 77 -105 39 -115 128 -218 188 -218 15 0 39 14 59 34 43 43
46 98 9 162 -33 56 -93 85 -189 92 -64 4 -77 9 -132 48 -34 24 -100 68 -148
98 -48 30 -83 56 -79 59 4 2 68 15 141 28 147 25 129 27 297 -36 169 -64 306
-32 357 82 24 55 18 99 -19 143 -86 103 -243 80 -397 -60 -91 -83 -102 -89
-197 -105 -112 -20 -111 -20 -74 20 18 19 43 56 55 82 12 26 25 55 29 63 4 8
38 38 76 66 37 28 74 62 81 75 33 60 3 148 -59 168 -39 13 -70 5 -106 -29 -52
-50 -62 -118 -35 -227 19 -74 15 -95 -25 -150 -56 -78 -86 -92 -274 -134 -94
-22 -181 -42 -192 -45 -13 -5 -6 8 24 42 24 27 61 79 83 115 22 38 64 89 97
117 32 28 66 67 75 85 23 49 21 118 -5 151 -29 37 -63 34 -109 -12 -57 -57
-75 -144 -45 -225 13 -37 12 -41 -17 -90 -34 -57 -106 -153 -135 -179 -11 -10
-80 -36 -154 -57 -74 -22 -146 -44 -161 -50 -36 -14 -35 -8 6 42 18 23 51 69
72 102 20 33 68 89 105 125 72 69 96 121 83 177 -9 39 -43 73 -72 73 -40 0
-98 -69 -113 -134 -12 -53 -10 -68 16 -151 13 -41 -148 -256 -201 -269 -44
-11 -415 -152 -484 -183 -36 -16 -108 -58 -160 -92 -107 -71 -207 -123 -337
-177 -248 -102 -560 -248 -633 -296 l-35 -23 19 30 c62 97 216 281 375 447
109 114 168 153 255 164 41 6 48 4 88 -30 51 -44 190 -116 225 -116 34 0 73
42 73 79 0 40 -48 94 -102 115 -57 23 -144 22 -199 -2 -24 -11 -71 -26 -104
-34 -33 -8 -69 -18 -80 -22 -11 -4 50 61 135 144 170 166 206 190 306 198 61
4 64 4 106 -32 24 -21 80 -56 125 -78 72 -36 87 -40 115 -32 40 12 62 52 53
94 -20 89 -190 143 -292 92 -21 -11 -65 -22 -98 -25 -33 -3 -71 -9 -85 -12
-40 -10 197 212 240 225 19 6 67 13 107 17 71 6 73 5 109 -27 47 -41 150 -90
189 -90 112 0 153 154 54 205 -44 23 -92 15 -186 -29 -56 -27 -94 -38 -142
-41 -36 -3 -81 -8 -100 -11 -31 -5 -22 6 108 133 152 147 214 190 323 224 l68
21 48 -44 c61 -54 153 -100 213 -106 40 -4 49 -1 63 19 78 113 -138 237 -282
162 -23 -13 -54 -23 -68 -23 -13 0 -52 -11 -87 -25 l-62 -26 55 57 c30 31 103
101 162 155 l107 99 59 0 c96 0 167 -24 226 -76 175 -158 302 -199 365 -117
47 59 14 131 -81 174 -55 25 -57 25 -333 18 -22 -1 -77 5 -123 12 l-84 15 79
65 c185 154 163 142 261 142 132 1 186 -19 264 -96 80 -80 161 -122 221 -114
50 7 87 44 87 88 0 40 -57 101 -122 129 -61 26 -133 23 -193 -8 -35 -18 -42
-18 -84 -5 -25 8 -89 18 -141 21 l-95 7 110 80 c61 45 115 84 121 88 12 7 164
-13 289 -39 77 -16 83 -20 141 -79 71 -70 165 -125 217 -125 74 0 111 95 67
168 -45 73 -148 93 -270 52 l-60 -20 -127 25 c-71 13 -150 28 -177 32 l-49 8
124 83 125 82 89 0 c209 0 316 45 366 155 24 51 24 91 0 135 -25 48 -71 73
-134 73 -107 0 -194 -78 -276 -246 -50 -100 -52 -103 -127 -152 -42 -27 -81
-51 -85 -53 -5 -2 -2 16 7 40 8 24 16 75 18 114 3 62 8 79 40 130 48 79 58
116 43 162 -14 42 -66 82 -108 82 -69 0 -122 -95 -99 -175 13 -45 60 -123 90
-150 42 -38 13 -176 -49 -235 -45 -43 -292 -223 -298 -217 -2 3 3 29 11 58 9
30 21 87 27 128 6 40 24 101 40 135 37 78 44 119 30 166 -12 40 -61 90 -88 90
-8 0 -27 -12 -42 -28 -57 -56 -48 -176 17 -253 l36 -42 -12 -76 c-6 -42 -21
-107 -32 -146 -19 -61 -28 -75 -67 -105 -25 -19 -81 -65 -125 -103 -44 -38
-82 -66 -85 -63 -4 3 1 33 10 65 9 33 14 67 11 75 -3 9 13 54 36 100 53 109
61 172 28 236 -30 59 -77 84 -122 66 -46 -18 -81 -94 -81 -171 1 -74 24 -125
84 -182 48 -46 47 -35 18 -165 -12 -56 -14 -59 -192 -226 -99 -94 -181 -169
-182 -168 -2 2 10 59 26 127 20 87 41 150 70 205 46 90 51 129 21 167 -43 55
-100 42 -131 -29 -24 -54 -20 -104 17 -177 30 -61 30 -70 -6 -213 l-29 -119
-138 -132 -138 -132 -9 102 c-11 134 -11 156 -1 259 8 84 7 89 -18 126 -25 38
-78 72 -112 72 -31 0 -75 -55 -75 -95 0 -58 23 -98 105 -178 74 -74 77 -78 84
-134 4 -32 4 -85 1 -119 l-5 -60 -127 -123 -127 -122 1 98 c0 54 1 139 1 188
0 50 0 120 1 157 1 61 -1 69 -29 98 -33 35 -75 60 -100 60 -9 0 -30 -13 -46
-29 -59 -60 -34 -140 79 -250 l77 -75 0 -128 0 -128 -171 -171 -172 -172 43
151 c24 85 57 178 77 214 46 83 52 110 34 153 -29 68 -94 70 -137 3 -27 -44
-21 -125 15 -197 l27 -53 -41 -147 -42 -148 -115 -124 c-63 -68 -149 -164
-190 -214 l-76 -89 6 224 c7 297 45 585 113 860 49 204 65 296 71 413 5 99 8
117 22 117 52 0 271 161 434 320 l109 105 81 0 c86 -1 152 -17 160 -39 3 -8
36 -36 74 -62 61 -44 73 -49 121 -49 45 0 57 4 74 25 14 17 18 33 14 54 -18
89 -152 134 -252 85 -36 -17 -49 -19 -81 -10 -21 6 -68 11 -105 11 -68 0 -81
7 -54 29 8 7 33 41 56 76 45 70 76 87 200 115 53 12 57 11 94 -14 21 -14 54
-29 74 -32 50 -10 112 14 132 49 15 27 14 29 -18 58 -45 41 -93 39 -181 -6
-37 -19 -75 -35 -84 -35 -9 0 -49 -11 -90 -23 l-74 -24 54 98 c29 54 63 120
75 148 l21 51 87 0 c73 0 92 3 114 21 30 23 32 38 11 79 -9 18 -26 31 -45 35
-23 5 -30 12 -30 30 0 49 -53 71 -97 40 -19 -13 -22 -13 -27 0 -8 22 -53 19
-66 -4 -20 -38 -12 -115 16 -156 l26 -39 -72 -142 c-71 -141 -173 -307 -205
-334 -14 -12 -16 -11 -11 11 3 13 8 80 12 149 5 102 10 130 26 153 33 47 50
114 38 158 -13 46 -61 89 -101 89 -34 0 -79 -39 -79 -68 0 -39 32 -122 65
-172 32 -48 35 -58 34 -124 0 -39 -4 -109 -8 -156 l-8 -85 -104 -99 c-57 -54
-116 -107 -131 -117 l-27 -19 10 32 c5 18 9 76 8 128 l-2 95 40 20 c55 27 83
54 83 80 0 31 -34 59 -65 53 -21 -4 -25 -1 -25 17 0 12 -7 28 -16 36 -21 17
-46 1 -59 -39 -10 -27 -12 -29 -30 -16 -25 18 -61 18 -69 -1 -11 -29 16 -74
69 -114 50 -38 54 -44 60 -95 7 -55 -8 -174 -26 -207 -16 -31 -213 -159 -244
-159 -3 0 -5 93 -5 208 0 114 -5 289 -11 389 l-11 182 35 63 c20 35 56 88 80
119 43 53 48 56 100 62 96 10 169 63 198 145 29 85 -80 118 -166 50 -25 -19
-85 -131 -85 -158 0 -6 -26 -45 -58 -88 -33 -42 -70 -96 -83 -119 l-25 -42
-25 192 c-30 227 -27 254 46 335 44 48 46 49 114 54 130 10 206 69 206 160 0
61 -25 88 -87 95 -62 7 -100 -15 -127 -71 -11 -25 -21 -51 -21 -57 0 -39 -29
-97 -67 -133 -23 -23 -55 -65 -71 -94 l-29 -52 -17 102 c-18 102 -18 103 4
163 53 148 61 182 62 251 0 75 -15 117 -56 162 -50 56 -129 68 -187 29z m127
-6 c73 -33 112 -119 100 -220 -8 -70 -12 -74 -46 -56 -56 29 -128 15 -167 -32
-9 -12 -16 -6 -39 33 -60 103 -37 230 49 273 51 25 52 25 103 2z m57 -295 c22
-13 19 -34 -15 -124 l-25 -64 -61 68 c-34 37 -62 72 -62 79 0 15 29 41 60 54
27 11 73 5 103 -13z m375 -36 c48 -45 17 -136 -59 -176 l-29 -15 0 36 c0 41
-29 75 -64 75 -23 0 -24 2 -14 30 23 66 118 95 166 50z m-812 -69 c53 -24 59
-35 29 -49 -24 -11 -65 -78 -65 -107 0 -19 -21 -19 -67 0 -76 32 -93 76 -52
129 38 49 88 57 155 27z m689 -46 c48 -47 27 -85 -47 -85 l-49 0 16 30 c8 16
15 38 15 49 0 17 11 28 33 30 4 1 19 -10 32 -24z m-593 -52 c14 -27 29 -59 33
-72 7 -23 7 -23 -68 -19 -42 2 -79 6 -82 10 -11 11 36 105 58 116 32 16 32 16
59 -35z m802 -219 c9 -8 16 -23 16 -32 0 -34 -66 -121 -92 -122 -5 0 -8 11 -8
25 0 31 -32 65 -61 65 -20 0 -20 2 -7 22 33 49 121 74 152 42z m-804 -45 c21
-6 50 -21 66 -34 l27 -22 -39 -19 c-31 -15 -42 -28 -52 -60 l-13 -42 -40 11
c-56 14 -99 56 -99 99 0 38 7 50 35 66 26 15 68 15 115 1z m680 -47 c21 -17
31 -64 16 -79 -3 -3 -28 -8 -56 -11 l-50 -5 15 43 c16 45 32 70 45 70 4 0 18
-8 30 -18z m614 -101 c-3 -39 -10 -71 -14 -71 -16 0 -43 89 -35 117 10 43 25
57 42 40 11 -11 13 -30 7 -86z m114 72 c14 -27 -1 -56 -54 -101 -27 -23 -49
-40 -51 -38 -8 8 19 122 33 137 21 24 60 24 72 2z m1282 4 c27 -21 50 -60 50
-85 0 -30 -30 -88 -39 -75 -3 6 -17 16 -29 22 -28 15 -76 0 -92 -28 -7 -13
-10 -11 -19 12 -6 16 -11 39 -11 53 0 35 25 90 47 103 24 14 74 13 93 -2z
m-2565 -30 c8 -13 18 -37 21 -55 l7 -32 -56 0 c-69 0 -87 7 -87 32 0 26 53 78
79 78 11 0 27 -10 36 -23z m3059 -41 c89 -37 103 -149 28 -230 -31 -32 -116
-76 -149 -76 -18 0 -23 6 -23 25 0 63 -60 135 -113 135 -17 0 -17 1 0 31 10
17 37 48 60 69 64 56 133 73 197 46z m-1702 -13 c21 -19 24 -56 5 -71 -18 -15
-116 -25 -150 -15 l-28 8 57 48 c60 50 86 57 116 30z m-471 -43 c23 -13 49
-61 49 -92 0 -22 -4 -23 -69 -23 -69 0 -70 0 -75 29 -9 45 -7 63 10 80 18 18
56 21 85 6z m1670 -36 c17 -15 17 -18 -8 -65 -28 -54 -34 -54 -75 4 l-22 30
28 24 c32 27 53 29 77 7z m-324 -63 c15 -22 23 -49 23 -78 l0 -44 -31 16 c-29
15 -33 15 -71 -4 l-40 -20 4 58 c8 110 66 146 115 72z m609 -22 c30 -15 54
-61 54 -103 l0 -36 -98 0 -98 0 38 81 c41 86 43 87 104 58z m-1932 -12 c18
-13 17 -15 -3 -55 -11 -22 -25 -43 -30 -46 -10 -7 -61 67 -61 88 0 13 19 21
61 25 8 0 23 -5 33 -12z m-1120 -67 c41 -15 66 -66 66 -134 0 -52 -2 -57 -17
-51 -43 18 -75 17 -103 -3 l-28 -21 -16 33 c-9 19 -16 55 -16 81 0 38 5 52 29
76 32 31 45 34 85 19z m2437 -26 c16 -14 16 -19 2 -52 -26 -64 -37 -69 -67
-29 -32 42 -33 61 -4 81 28 20 47 20 69 0z m-789 -51 c10 -9 18 -24 18 -34 0
-23 -48 -49 -89 -49 -29 0 -30 1 -19 25 8 18 8 31 0 49 -8 19 -8 26 1 30 20 8
69 -3 89 -21z m-104 -25 c2 -14 -4 -31 -13 -38 -14 -12 -21 -11 -43 2 -37 23
-37 32 0 50 41 21 52 18 56 -14z m556 -28 c37 -14 68 -80 64 -138 -3 -50 -3
-50 -68 -38 -28 6 -42 2 -72 -18 -30 -20 -37 -22 -42 -9 -18 46 3 138 40 183
28 32 39 35 78 20z m-1271 -44 c6 -15 2 -38 -15 -96 -10 -30 -12 -32 -19 -15
-9 25 -11 88 -3 109 8 20 30 21 37 2z m-785 -28 c7 -9 3 -30 -11 -67 l-21 -54
-24 29 c-54 66 -58 75 -37 90 23 17 79 18 93 2z m714 -49 c9 -13 20 -37 24
-54 l7 -30 -34 26 c-47 36 -73 74 -65 94 6 15 9 16 28 3 12 -8 30 -26 40 -39z
m153 -4 c0 -25 -7 -33 -44 -52 -25 -13 -46 -21 -49 -19 -5 6 19 77 32 94 5 7
21 12 35 10 22 -2 26 -8 26 -33z m-582 -16 c45 -24 49 -57 11 -106 l-25 -34
-30 26 c-18 14 -43 25 -60 25 -16 0 -29 2 -29 5 0 20 35 67 58 79 33 19 47 19
75 5z m2837 -29 c17 -31 -16 -130 -43 -130 -7 0 -35 23 -62 50 -55 56 -54 61
20 81 22 5 45 12 50 14 19 7 24 5 35 -15z m86 0 c67 -33 93 -89 69 -146 -20
-49 -46 -59 -105 -39 -68 23 -74 33 -49 85 14 28 20 56 17 81 -4 46 6 49 68
19z m-1121 -34 c19 -14 19 -15 -5 -65 -34 -74 -44 -80 -81 -45 -57 54 -59 82
-10 109 34 18 72 19 96 1z m-603 -33 c92 -46 88 -133 -6 -133 -23 0 -52 7 -64
16 -21 14 -21 17 -6 45 12 24 13 37 5 61 -6 17 -11 33 -11 35 0 6 54 -9 82
-24z m-92 -2 c14 -27 13 -54 -4 -76 -12 -17 -16 -16 -56 22 l-44 40 30 16 c39
22 61 21 74 -2z m-1172 -21 c17 -11 32 -24 32 -30 0 -14 -81 -71 -91 -64 -10
6 -12 97 -2 107 11 11 26 8 61 -13z m-525 -31 c12 -7 24 -13 25 -15 2 -1 -6
-12 -17 -23 -12 -12 -21 -34 -21 -51 0 -34 -2 -35 -33 -19 -59 30 -84 78 -55
107 15 15 73 16 101 1z m3055 -42 c21 -25 24 -64 8 -96 -9 -17 -20 -31 -25
-31 -17 0 -103 89 -96 99 8 14 63 39 86 40 9 1 21 -5 27 -12z m109 -8 c84 -41
118 -115 71 -159 -27 -25 -86 -27 -134 -4 -44 21 -48 29 -30 56 18 26 21 80 6
109 -9 17 -7 19 16 19 15 0 47 -9 71 -21z m-3089 -19 c23 -31 28 -50 13 -50
-5 0 -22 -3 -39 -6 -24 -5 -32 -2 -42 16 -9 17 -8 26 5 46 21 32 37 30 63 -6z
m1976 -42 c30 -43 14 -135 -22 -124 -9 3 -30 -1 -46 -9 -35 -18 -46 -8 -46 42
0 90 74 149 114 91z m-21 -145 c2 -5 -6 -25 -19 -47 l-22 -39 -18 28 c-18 27
-18 28 5 46 24 20 47 24 54 12z m712 -23 c8 -13 -15 -87 -31 -101 -10 -8 -26
0 -64 32 -29 25 -47 46 -42 51 5 5 31 13 58 17 69 12 72 12 79 1z m172 -32
c63 -31 92 -82 69 -125 -35 -69 -112 -70 -218 -1 l-48 30 20 38 c11 22 20 51
20 66 0 26 1 27 54 21 30 -3 76 -16 103 -29z m-1336 -97 c33 -32 39 -45 39
-79 0 -41 0 -41 -33 -35 -28 4 -37 1 -55 -22 -19 -23 -24 -26 -38 -15 -43 36
-58 126 -28 168 25 36 69 29 115 -17z m-1570 -132 c10 -20 6 -90 -8 -126 -8
-22 -73 84 -73 119 0 51 54 56 81 7z m2327 7 c4 -31 -15 -76 -31 -76 -14 0
-87 60 -87 71 0 15 61 39 90 36 20 -1 26 -8 28 -31z m65 23 c57 -16 107 -64
107 -103 0 -20 -8 -40 -20 -51 -19 -18 -23 -18 -73 -2 -29 9 -61 23 -71 30
-17 13 -18 15 -1 47 9 18 15 46 13 61 -5 33 -6 33 45 18z m-2315 -57 c2 -17
-6 -48 -17 -70 -21 -41 -51 -63 -51 -37 0 28 23 120 33 133 16 20 32 8 35 -26z
m1524 -32 c-2 -30 -6 -57 -8 -60 -3 -2 -21 12 -41 32 -34 34 -36 39 -25 63 10
22 18 26 45 23 l32 -3 -3 -55z m-1715 32 c7 -4 31 -36 53 -71 l41 -63 -38 6
c-21 4 -58 17 -83 29 -54 26 -66 65 -28 91 25 18 37 19 55 8z m1413 -70 c34
-33 40 -45 40 -80 0 -41 -1 -41 -29 -36 -23 5 -35 1 -56 -20 -22 -22 -30 -25
-42 -15 -45 38 -58 134 -23 169 31 31 64 25 110 -18z m1943 -42 c32 -26 51
-79 38 -111 -5 -13 -20 -34 -33 -46 l-24 -23 -23 31 c-21 29 -27 31 -67 26
-41 -4 -44 -3 -44 20 0 53 59 123 105 123 12 0 34 -9 48 -20z m-377 -77 c17
-40 13 -88 -11 -119 -14 -18 -15 -18 -26 -1 -15 26 -54 38 -84 27 -31 -12 -33
5 -9 53 26 51 55 77 86 77 24 0 32 -6 44 -37z m-2525 -3 c23 -13 25 -50 3 -93
-9 -18 -18 -33 -19 -35 -2 -2 -18 6 -36 17 -19 12 -46 21 -61 21 -16 0 -28 5
-28 10 0 20 30 69 47 79 23 13 69 14 94 1z m987 -19 c10 -6 11 -22 6 -59 -3
-29 -9 -52 -12 -52 -12 0 -72 64 -72 76 0 32 49 54 78 35z m1860 -53 c21 -21
13 -42 -29 -77 -22 -18 -42 -31 -44 -29 -2 2 -10 25 -17 51 -11 41 -10 49 2
57 21 14 74 12 88 -2z m-698 -44 c14 -36 12 -71 -5 -105 l-16 -30 -31 26 c-26
22 -38 25 -66 20 -32 -6 -33 -5 -27 17 12 39 55 99 78 107 28 11 55 -3 67 -35z
m-369 7 c37 -37 38 -79 3 -120 -21 -25 -34 -31 -64 -31 -22 0 -50 5 -64 11
-21 10 -23 15 -16 41 10 32 5 54 -18 80 -14 16 -12 19 19 32 57 25 106 20 140
-13z m-2362 10 c12 -8 12 -12 -2 -26 -10 -9 -17 -30 -17 -46 0 -35 -15 -37
-61 -6 -40 27 -49 55 -23 74 20 15 82 17 103 4z m544 -40 c4 -4 -11 -25 -34
-45 -47 -43 -58 -39 -66 24 -7 53 7 64 56 44 20 -8 40 -19 44 -23z m2501 23
c23 -23 20 -36 -19 -74 -40 -39 -52 -34 -62 23 -7 43 9 67 43 67 12 0 30 -7
38 -16z m-850 -26 c17 -24 20 -56 8 -76 -6 -9 -20 -4 -55 19 -26 17 -47 34
-47 38 0 7 57 39 72 40 4 1 14 -9 22 -21z m-2134 -13 c27 -28 25 -32 -19 -45
-28 -8 -33 -6 -43 15 -8 19 -8 28 2 40 18 21 33 19 60 -10z m3827 -15 c56 -25
85 -72 80 -127 -9 -88 -85 -143 -198 -143 -78 0 -96 9 -80 38 26 49 5 130 -44
166 -18 13 -17 14 9 32 39 24 124 53 161 53 17 1 49 -8 72 -19z m-2541 -58
c16 -10 34 -48 34 -71 0 -38 -22 -73 -43 -67 -11 3 -33 -2 -48 -10 -15 -7 -31
-14 -35 -14 -3 0 -4 30 -2 66 3 55 8 70 27 85 24 20 48 24 67 11z m1328 -14
c15 -22 14 -25 -24 -63 -34 -33 -42 -37 -50 -25 -18 27 -23 79 -10 95 19 23
66 19 84 -7z m974 -21 c13 -13 26 -37 31 -53 8 -32 -3 -89 -20 -100 -11 -7
-181 57 -176 67 6 15 119 109 130 109 8 0 23 -11 35 -23z m-1712 -123 c4 -16
0 -39 -10 -61 l-16 -34 -46 33 c-25 18 -47 36 -50 39 -6 10 21 29 53 39 49 15
62 11 69 -16z m116 -10 c56 -29 76 -95 38 -129 -22 -20 -56 -17 -125 14 l-44
19 20 39 c12 23 18 49 15 65 -5 26 -5 26 32 16 20 -6 49 -16 64 -24z m-712 11
c0 -3 -10 -24 -21 -47 -20 -39 -22 -41 -35 -23 -18 24 -18 34 3 57 15 16 53
26 53 13z m-1295 -34 c22 -10 48 -27 58 -39 18 -20 18 -21 -5 -35 -38 -24
-116 -47 -161 -47 -58 0 -89 23 -85 63 2 27 11 36 48 55 53 27 92 28 145 3z
m655 -33 c0 -18 -10 -49 -22 -68 l-23 -35 -3 34 c-6 58 6 101 28 101 16 0 20
-7 20 -32z m-83 -10 c6 -7 13 -37 16 -66 l6 -53 -30 22 c-45 32 -63 63 -49 88
12 23 42 28 57 9z m173 -41 c0 -20 -40 -52 -87 -70 -55 -21 -56 -7 -4 44 39
39 91 54 91 26z m2808 -144 c35 -8 28 -49 -17 -94 -21 -22 -43 -39 -49 -39
-10 0 -45 75 -58 124 l-7 29 54 -7 c30 -4 64 -10 77 -13z m-390 -48 c3 -42
-24 -85 -53 -85 -16 0 -48 56 -59 103 l-7 28 58 -3 58 -3 3 -40z m496 -15 c34
-41 42 -89 22 -128 -34 -66 -85 -69 -145 -8 l-43 44 41 37 c22 20 46 52 52 70
14 39 30 36 73 -15z m-409 -3 c54 -53 76 -117 54 -155 -30 -54 -111 -44 -162
20 l-30 37 37 34 c28 27 36 42 36 71 0 20 5 36 11 36 7 0 31 -19 54 -43z
m-1719 -3 c4 -16 0 -39 -10 -61 l-16 -34 -28 20 c-70 53 -74 57 -60 68 16 13
67 31 90 32 11 1 20 -9 24 -25z m116 -10 c82 -42 75 -154 -8 -141 -18 3 -53
15 -78 26 l-46 20 21 36 c15 24 20 45 16 64 l-6 29 37 -10 c20 -6 49 -16 64
-24z m1203 -114 c10 -9 11 -18 3 -41 -9 -27 -60 -79 -78 -79 -7 0 -40 71 -55
119 -7 24 -7 24 54 18 34 -3 68 -10 76 -17z m74 -35 c57 -49 64 -135 14 -175
-43 -34 -86 -21 -131 39 l-21 29 44 45 c25 25 45 54 45 66 0 28 12 27 49 -4z
m-438 -19 c13 -29 -4 -71 -38 -94 -22 -14 -24 -13 -48 39 -35 75 -34 79 25 79
43 0 52 -3 61 -24z m81 -29 c57 -53 78 -136 42 -171 -20 -20 -78 -21 -107 -1
-13 8 -33 28 -45 45 l-23 30 36 31 c29 26 35 38 35 70 0 35 2 39 18 30 9 -5
29 -20 44 -34z m-874 -151 c4 -35 -13 -79 -40 -103 -21 -18 -21 -18 -15 45 5
63 20 96 41 89 6 -2 12 -16 14 -31z m536 5 c24 -26 23 -87 -2 -120 -23 -31
-52 -40 -52 -15 0 9 -16 32 -36 51 -36 34 -36 34 -18 56 45 52 79 61 108 28z
m-439 -51 c0 -17 -88 -64 -107 -58 -22 8 58 80 84 76 13 -2 23 -10 23 -18z
m344 -55 c38 -43 38 -53 5 -65 -39 -15 -84 -13 -84 5 0 22 31 95 40 95 4 0 22
-16 39 -35z m-351 -17 c18 -18 14 -46 -8 -58 -15 -8 -31 -6 -70 11 -55 24 -55
27 -7 45 43 16 71 16 85 2z m742 -57 c0 -19 -19 -36 -92 -80 -34 -20 -38 -21
-38 -5 0 9 20 36 44 60 46 47 86 58 86 25z m48 -67 c29 -20 28 -40 -3 -60 -23
-15 -33 -15 -86 -4 -33 7 -58 17 -56 23 4 13 87 57 107 57 9 0 26 -7 38 -16z
m-115 -73 c23 -6 54 -12 68 -15 51 -11 58 -80 10 -106 -23 -12 -59 14 -102 73
-43 60 -42 62 24 48z m-193 -216 c34 -17 36 -23 17 -49 -8 -11 -23 -17 -38
-14 -20 2 -25 9 -27 41 -4 41 4 45 48 22z m85 -72 c38 -79 -20 -114 -86 -52
l-33 31 33 14 c18 8 35 23 38 33 7 27 28 16 48 -26z m-376 -4 c46 -28 69 -56
82 -103 22 -81 -17 -148 -74 -127 -34 13 -55 55 -63 124 -7 56 1 127 14 127 4
0 22 -9 41 -21z"/>
</g>
</svg>
