<?xml version="1.0" standalone="no"?>
<!DOCTYPE svg PUBLIC "-//W3C//DTD SVG 20010904//EN"
 "http://www.w3.org/TR/2001/REC-SVG-20010904/DTD/svg10.dtd">
<svg version="1.0" xmlns="http://www.w3.org/2000/svg"
 width="752.000000pt" height="752.000000pt" viewBox="0 0 752.000000 752.000000"
 preserveAspectRatio="xMidYMid meet">

<g transform="translate(0.000000,752.000000) scale(0.100000,-0.100000)"
fill="#000000" stroke="none">
<path d="M3694 5776 c-46 -20 -77 -70 -82 -131 l-4 -52 -49 5 c-57 5 -94 -14
-110 -56 -34 -90 140 -257 289 -277 26 -4 52 -8 59 -10 8 -3 3 -31 -17 -92
-15 -48 -40 -155 -55 -238 -45 -248 -96 -447 -158 -614 l-31 -84 -27 105 c-36
136 -86 266 -158 405 l-58 112 21 34 c11 19 42 61 68 93 90 111 104 230 34
286 -55 45 -117 5 -137 -90 -17 -81 -25 -92 -33 -46 -10 53 -40 108 -73 134
-33 26 -92 23 -123 -5 -26 -24 -43 -79 -35 -116 l7 -31 -33 17 c-44 23 -117
15 -141 -15 -28 -34 -23 -84 12 -123 34 -39 75 -56 217 -91 103 -25 169 -53
191 -79 15 -17 132 -248 132 -260 0 -4 -15 0 -32 9 -46 24 -164 21 -250 -5
-72 -23 -161 -78 -166 -104 -9 -46 266 -49 398 -4 41 14 78 22 82 19 9 -10 45
-134 63 -221 l15 -74 -90 -181 c-49 -99 -98 -209 -109 -242 -29 -89 -44 -197
-39 -286 l5 -77 -41 32 c-122 94 -329 332 -520 597 -54 74 -123 160 -152 191
l-55 55 53 37 c87 60 148 154 169 259 9 44 8 61 -5 91 -26 63 -107 74 -156 22
l-23 -25 -17 38 c-19 42 -69 89 -106 98 -42 11 -91 -5 -119 -38 -23 -27 -26
-39 -23 -85 2 -44 0 -52 -12 -47 -8 4 -38 13 -66 22 -67 19 -116 10 -160 -31
-40 -37 -47 -80 -20 -122 43 -65 253 -188 387 -225 93 -25 133 -63 276 -260
147 -201 251 -328 367 -447 54 -57 97 -103 94 -103 -18 0 -325 111 -433 156
l-130 55 0 107 c0 125 -18 173 -92 250 -56 59 -68 49 -67 -56 1 -80 22 -162
56 -219 11 -18 17 -33 14 -33 -25 0 -294 163 -309 187 -3 5 -13 42 -21 82 -34
161 -136 311 -224 327 -80 15 -137 -51 -127 -147 l5 -46 -41 -7 c-26 -4 -52
-17 -71 -37 -28 -27 -30 -34 -26 -83 3 -34 13 -65 27 -85 l23 -33 -30 -31
c-48 -49 -58 -88 -35 -134 28 -57 73 -83 147 -83 96 0 153 32 262 147 l91 96
94 -62 c178 -118 470 -249 799 -358 162 -54 167 -57 280 -142 309 -232 403
-371 439 -648 13 -105 34 -518 29 -603 l-3 -65 -23 75 c-96 313 -161 475 -244
613 -47 79 -49 84 -39 124 34 132 -22 325 -111 388 -60 41 -136 1 -145 -76
l-5 -46 -32 11 c-17 6 -51 25 -76 42 -140 96 -299 157 -451 174 -91 10 -95 11
-126 48 -18 20 -56 84 -85 142 -79 156 -146 211 -215 178 -60 -29 -68 -107
-17 -168 l26 -30 -32 0 c-71 0 -128 -61 -116 -125 11 -56 56 -83 153 -92 l66
-6 -65 -33 c-73 -37 -85 -49 -94 -92 -5 -26 -1 -36 24 -62 24 -24 39 -30 73
-30 81 0 121 29 259 190 l44 53 81 -6 c102 -8 238 -47 335 -98 76 -40 117 -67
109 -71 -2 -2 -17 -11 -34 -20 -16 -9 -38 -33 -49 -53 -25 -49 -10 -102 40
-143 36 -30 36 -30 13 -37 -122 -38 -188 -185 -112 -245 65 -51 300 9 465 118
38 24 39 25 53 6 8 -10 46 -82 85 -159 73 -146 120 -275 196 -534 38 -129 45
-165 42 -220 -2 -53 0 -66 12 -66 21 0 27 85 29 367 l1 227 75 -54 c111 -80
239 -135 311 -135 112 0 112 160 0 230 l-35 21 39 38 c30 29 40 46 40 70 0 76
-65 129 -145 118 l-42 -6 -6 42 c-7 50 -44 87 -88 87 -38 0 -99 -56 -137 -128
l-29 -53 -7 68 c-4 37 -9 84 -12 103 -6 36 -6 36 44 48 69 18 165 65 236 116
72 52 219 201 301 306 155 198 363 376 687 586 69 46 158 110 197 144 l70 60
15 -27 c24 -46 93 -119 143 -151 104 -65 217 -79 255 -32 24 29 23 87 -2 128
-25 40 -25 39 5 46 38 10 93 64 104 102 12 44 -1 93 -34 124 -21 19 -37 24
-80 24 l-53 0 14 28 c41 79 34 170 -16 220 -41 41 -88 39 -139 -7 -80 -73
-194 -265 -222 -377 -17 -65 -74 -118 -274 -251 -185 -124 -363 -258 -474
-356 -63 -56 -81 -68 -76 -50 17 55 110 283 164 399 l57 125 99 -3 c83 -3 109
0 156 17 58 22 149 93 149 116 0 7 -14 15 -31 19 -80 16 -192 0 -271 -40 -27
-13 -48 -20 -48 -16 0 13 135 221 171 264 34 40 40 44 112 55 144 23 283 98
323 174 21 42 18 101 -7 128 -28 30 -60 41 -120 41 -47 0 -49 1 -49 29 0 40
-40 94 -80 107 -40 13 -92 4 -129 -24 l-27 -19 -36 37 c-45 48 -86 58 -135 33
-62 -31 -78 -62 -78 -156 0 -103 18 -137 140 -260 l86 -88 -21 -27 c-70 -91
-154 -226 -222 -357 -43 -82 -78 -143 -78 -134 0 53 -43 150 -86 198 -25 28
-52 51 -60 51 -20 0 -27 -43 -21 -124 6 -83 35 -167 79 -227 l31 -44 -20 -55
c-121 -320 -117 -313 -208 -424 -47 -58 -91 -108 -97 -112 -13 -8 -20 4 -54
82 l-26 61 40 57 c50 71 77 165 69 239 -9 69 -26 117 -42 117 -14 0 -65 -76
-85 -128 -7 -19 -18 -59 -25 -90 l-11 -57 -32 130 c-18 72 -34 157 -38 190 -5
56 -3 64 30 118 19 32 62 91 94 132 33 40 68 94 77 119 30 77 5 138 -61 152
-37 7 -90 -27 -115 -74 l-18 -34 -15 30 c-20 40 -58 62 -103 62 -80 0 -113
-59 -87 -156 8 -31 19 -65 26 -77 13 -24 16 -26 -72 41 -78 59 -156 35 -154
-47 2 -53 27 -94 79 -129 41 -27 72 -38 212 -72 50 -13 73 -33 73 -66 0 -47
52 -267 86 -366 20 -56 55 -141 79 -189 l44 -88 -52 -47 c-101 -91 -201 -151
-314 -188 -56 -18 -73 -15 -73 12 0 27 -57 141 -104 206 -53 74 -151 169 -268
260 -74 56 -88 73 -95 104 -12 61 -6 213 11 280 22 81 94 251 159 372 47 87
66 109 222 261 236 231 450 488 542 651 21 37 44 68 50 68 7 0 59 -19 115 -42
94 -39 111 -43 188 -43 72 0 92 4 128 25 55 31 82 75 82 132 0 37 -5 49 -33
76 -18 17 -46 34 -63 38 -30 6 -30 6 -26 67 2 49 -1 69 -17 94 -30 48 -98 63
-165 37 -11 -4 -16 -1 -16 10 0 27 -38 93 -62 110 -12 9 -39 16 -60 16 -47 0
-99 -43 -123 -103 -23 -56 -23 -216 -1 -314 17 -70 17 -72 -5 -115 -28 -56
-144 -230 -166 -251 -17 -15 -18 -13 -15 32 5 69 -14 157 -49 229 -37 76 -55
78 -80 7 -35 -97 -19 -213 41 -308 l31 -49 -38 -46 c-42 -52 -375 -394 -379
-389 -1 1 13 47 32 102 45 128 106 373 144 580 16 89 40 193 53 232 22 64 33
79 123 169 71 71 114 125 152 189 67 113 79 153 62 195 -35 84 -164 77 -253
-15 -30 -31 -37 -34 -37 -19 0 30 -36 82 -69 99 -36 18 -56 18 -97 1z m105
-51 c37 -48 49 -165 32 -320 l-6 -60 -38 58 c-21 33 -58 80 -82 106 -24 26
-49 60 -55 76 -15 40 -3 100 27 135 33 40 92 42 122 5z m308 -6 c21 -18 15
-77 -14 -127 -53 -93 -108 -168 -166 -229 -33 -35 -63 -63 -67 -63 -3 0 -3 24
1 53 4 28 8 97 8 153 1 94 3 103 29 137 33 44 73 76 110 87 31 10 79 5 99 -11z
m-508 -164 c43 -22 144 -137 181 -206 l33 -62 -48 6 c-57 8 -140 44 -191 83
-44 34 -94 105 -94 135 0 53 60 75 119 44z m821 -63 c35 -36 49 -95 27 -120
-8 -9 -29 -46 -47 -81 -37 -74 -99 -171 -110 -171 -13 0 -21 42 -27 147 -7
119 6 179 47 223 36 39 73 39 110 2z m207 -117 c45 -32 39 -147 -8 -153 -13
-2 -84 -33 -158 -68 -74 -35 -136 -63 -137 -61 -2 2 15 30 37 62 23 33 57 92
75 131 26 54 43 76 67 88 41 20 96 20 124 1z m-1484 -136 c13 -6 31 -24 41
-40 19 -33 55 -187 56 -239 l0 -35 -90 90 c-67 67 -92 98 -96 124 -9 45 5 83
36 98 30 15 24 15 53 2z m275 -30 c30 -56 -9 -158 -100 -259 l-41 -45 7 85 c9
113 34 218 57 241 23 23 58 13 77 -22z m1307 -33 c80 -34 71 -132 -18 -178
-69 -37 -151 -32 -270 16 -53 22 -95 42 -92 44 2 3 64 33 137 68 141 68 180
76 243 50z m-1742 -87 c41 -21 193 -166 184 -175 -9 -10 -213 48 -254 72 -60
35 -70 94 -20 114 33 13 44 12 90 -11z m1018 -127 c15 -41 21 -80 22 -140 0
-90 -6 -106 -28 -76 -40 53 -62 186 -42 257 10 37 21 28 48 -41z m904 -154
c15 -12 34 -36 41 -54 15 -36 18 -171 8 -286 l-7 -67 -73 74 c-84 85 -113 136
-121 209 -12 112 76 184 152 124z m244 -34 c23 -30 36 -83 27 -117 -3 -13 -29
-50 -57 -83 -29 -32 -70 -86 -91 -119 l-39 -60 3 180 4 180 33 22 c47 32 94
30 120 -3z m-2702 -40 c58 -37 77 -106 51 -183 -11 -30 -24 -89 -31 -132 l-11
-79 -39 68 c-89 152 -122 262 -93 307 30 45 72 51 123 19z m241 -77 c33 -26 3
-153 -57 -241 -30 -43 -114 -115 -135 -116 -11 0 1 119 21 195 35 142 108 211
171 162z m2624 -7 c63 -18 75 -70 33 -132 -17 -26 -48 -48 -102 -75 -74 -37
-197 -72 -209 -60 -10 9 42 89 102 157 31 36 61 75 66 87 9 19 24 26 63 32 6
0 27 -4 47 -9z m-3062 -62 c40 -20 51 -34 96 -121 29 -54 64 -116 78 -137 33
-50 22 -51 -82 -11 -142 56 -302 170 -302 215 0 71 116 101 210 54z m1126 -63
l29 -19 -72 -23 c-83 -26 -209 -39 -277 -29 -53 8 -52 17 7 48 97 50 254 62
313 23z m2295 -101 c34 -36 33 -121 -1 -184 -23 -41 -36 -50 -168 -116 -122
-61 -142 -69 -137 -50 15 50 89 195 132 255 87 123 127 145 174 95z m-3671
-184 c15 -11 43 -50 63 -87 35 -68 81 -202 73 -211 -8 -7 -128 64 -181 108
-27 23 -62 48 -77 56 -25 13 -28 20 -28 63 0 65 7 81 44 96 33 14 60 8 106
-25z m2208 -72 c7 -7 12 -31 12 -53 0 -44 -25 -86 -121 -207 l-42 -53 6 90 c7
105 27 178 58 211 24 26 67 32 87 12z m-223 -22 c35 -35 40 -69 27 -176 -7
-52 -12 -108 -12 -125 l0 -30 -21 30 c-46 67 -109 209 -109 247 0 71 66 103
115 54z m1824 -2 c32 -41 27 -80 -17 -124 -45 -45 -104 -60 -149 -37 -30 16
-117 40 -187 52 l-40 7 54 29 c98 53 222 99 272 99 39 0 50 -5 67 -26z m-3936
-75 c12 -7 43 -29 68 -50 26 -22 77 -56 113 -78 l67 -39 -178 -4 c-200 -5
-204 -4 -225 64 -8 29 -8 44 0 64 21 44 107 68 155 43z m3185 -17 c33 -21 -92
-82 -182 -89 -34 -3 -71 -1 -84 4 -22 8 -21 11 27 37 74 40 208 67 239 48z
m-519 -69 c17 -26 36 -65 42 -86 10 -40 14 -155 5 -164 -6 -7 -53 76 -70 125
-20 57 -32 172 -18 172 5 0 24 -21 41 -47z m-769 6 c38 -23 205 -187 198 -195
-10 -9 -150 27 -197 51 -60 30 -91 67 -91 109 0 58 32 70 90 35z m-1230 -107
c21 -55 28 -172 10 -172 -14 0 -56 79 -74 139 -9 30 -16 77 -16 105 l1 51 30
-35 c16 -19 38 -58 49 -88z m2994 102 c131 -34 206 -86 206 -144 0 -113 -226
-42 -332 104 -15 21 -28 43 -28 48 0 13 88 9 154 -8z m-3474 -184 c-94 -108
-142 -139 -229 -147 -47 -4 -61 -1 -91 19 -49 33 -60 69 -35 116 34 62 67 72
248 72 l159 0 -52 -60z m287 -194 c16 -14 55 -75 87 -136 l58 -111 -43 22
c-69 34 -154 95 -183 129 -28 34 -35 87 -14 108 20 20 64 14 95 -12z m1893
-104 c0 -77 -21 -142 -63 -197 -15 -19 -16 -19 -23 9 -16 65 47 289 76 271 5
-3 10 -41 10 -83z m-1957 -86 c18 -7 71 -38 120 -69 83 -53 86 -56 59 -62 -15
-3 -76 -6 -135 -7 -132 -1 -170 16 -175 75 -3 32 1 39 30 57 39 24 58 25 101
6z m192 -215 c-65 -86 -128 -138 -176 -146 -80 -14 -120 51 -59 95 36 26 133
67 215 91 33 10 61 18 62 18 2 1 -17 -26 -42 -58z m919 -73 c54 -62 79 -137
80 -235 1 -45 -3 -85 -7 -89 -4 -5 -20 7 -35 26 -15 19 -45 55 -68 80 -49 53
-81 113 -90 167 -4 30 -1 44 16 66 31 39 62 35 104 -15z m-158 -146 c38 -37
90 -95 116 -130 56 -73 53 -74 -73 -38 -174 51 -239 92 -239 153 0 48 37 83
88 83 35 0 47 -7 108 -68z m19 -195 c50 -14 106 -29 125 -34 l35 -9 -45 -29
c-61 -40 -204 -92 -288 -107 -62 -10 -73 -10 -96 5 -58 38 -20 131 74 180 61
32 63 32 195 -6z m767 -94 c31 -27 23 -82 -20 -149 -39 -59 -132 -154 -152
-154 -15 0 -12 79 6 140 19 65 52 118 94 153 37 31 47 33 72 10z m193 -138
c47 -46 30 -92 -47 -125 -52 -22 -176 -49 -232 -50 -28 0 -28 0 27 60 31 33
64 73 73 89 22 38 47 49 107 50 38 1 53 -4 72 -24z m-30 -203 c87 -48 123
-133 70 -168 -21 -14 -32 -15 -71 -5 -68 17 -163 63 -235 112 l-64 44 55 8
c30 5 84 15 120 22 36 7 67 13 70 14 3 0 27 -12 55 -27z"/>
</g>
</svg>
