<?xml version="1.0" standalone="no"?>
<!DOCTYPE svg PUBLIC "-//W3C//DTD SVG 20010904//EN"
 "http://www.w3.org/TR/2001/REC-SVG-20010904/DTD/svg10.dtd">
<svg version="1.0" xmlns="http://www.w3.org/2000/svg"
 width="752.000000pt" height="752.000000pt" viewBox="0 0 752.000000 752.000000"
 preserveAspectRatio="xMidYMid meet">

<g transform="translate(0.000000,752.000000) scale(0.100000,-0.100000)"
fill="#000000" stroke="none">
<path d="M3989 5378 c-27 -30 -34 -33 -92 -33 l-62 0 1 -112 2 -113 -33 0
c-17 0 -54 7 -81 15 -70 21 -81 19 -87 -15 -6 -29 -8 -30 -63 -30 -47 0 -55
-3 -50 -16 21 -56 19 -62 -22 -69 -33 -5 -43 -12 -51 -35 -9 -26 -5 -35 39
-92 26 -35 61 -75 76 -90 46 -42 144 -97 204 -114 135 -37 246 -79 265 -100
11 -12 37 -24 59 -28 22 -3 44 -10 49 -15 6 -6 14 -57 18 -115 9 -123 22 -191
55 -289 36 -105 68 -237 109 -452 20 -104 43 -224 51 -265 23 -116 36 -259 29
-322 l-7 -56 -96 61 c-292 187 -450 304 -784 577 -218 179 -478 425 -478 454
0 8 12 22 28 30 37 20 68 54 87 99 19 46 23 337 5 467 -11 82 -57 275 -79 334
-14 34 -18 31 -51 -37 -14 -29 -29 -52 -35 -52 -5 0 -15 16 -21 35 -14 42 -31
50 -40 16 -3 -14 -12 -30 -19 -36 -11 -9 -17 -5 -30 19 -8 17 -19 31 -23 31
-13 0 -37 -23 -55 -52 -21 -34 -31 -35 -45 -3 -16 35 -27 31 -46 -15 -20 -50
-20 -140 -1 -204 33 -108 14 -96 -115 74 -48 63 -95 122 -105 130 -15 13 -19
12 -31 -5 -8 -10 -14 -28 -14 -39 0 -34 -18 -51 -52 -51 -31 0 -33 -3 -47 -52
-8 -29 -18 -53 -23 -53 -5 0 -22 7 -38 15 l-28 15 -17 -50 c-9 -28 -19 -50
-21 -50 -3 0 -19 7 -35 16 -29 14 -32 14 -51 -3 -11 -10 -31 -37 -44 -59 -16
-27 -34 -44 -52 -49 -41 -10 -72 -33 -72 -54 0 -47 182 -158 343 -211 39 -13
66 -27 64 -33 -2 -7 -48 -32 -102 -56 -79 -36 -113 -45 -172 -49 -40 -3 -76
-8 -78 -12 -3 -5 18 -22 45 -40 55 -35 60 -48 30 -75 -30 -27 -19 -40 33 -40
25 0 48 -3 52 -6 3 -3 -1 -22 -10 -42 l-14 -35 35 -9 35 -8 -35 -42 c-20 -22
-36 -46 -36 -51 0 -23 90 -25 163 -4 40 11 106 26 147 32 176 27 266 65 366
152 57 49 113 83 149 89 16 3 71 -47 220 -197 110 -110 257 -246 328 -302 70
-56 127 -105 127 -109 0 -5 -51 -13 -115 -19 -129 -13 -205 -42 -250 -95 -49
-59 -43 -61 138 -57 137 3 168 6 202 23 35 17 62 53 78 99 2 6 48 -21 103 -59
221 -153 498 -337 657 -436 93 -57 202 -129 243 -160 82 -61 184 -154 184
-168 0 -5 -16 -4 -35 2 -38 11 -219 -10 -330 -38 -71 -19 -147 -71 -143 -99 4
-28 94 -57 198 -63 102 -7 206 16 322 70 l74 34 32 -41 c17 -23 58 -75 91
-116 32 -41 90 -120 127 -175 51 -73 79 -105 106 -118 78 -38 69 -14 -48 123
-64 74 -153 184 -199 243 l-84 109 33 29 c55 48 83 201 55 304 -15 56 -127
336 -144 359 -18 23 -32 14 -40 -27 -4 -17 -17 -63 -28 -102 -18 -56 -22 -94
-21 -195 0 -69 6 -145 13 -169 7 -23 10 -45 8 -48 -3 -2 -52 30 -109 73 -56
42 -158 113 -226 157 l-123 80 7 72 c3 39 1 127 -6 195 -7 69 -14 136 -14 149
-1 21 11 29 94 65 108 47 145 85 172 177 31 102 31 118 2 129 -74 29 -188 -61
-254 -199 -38 -78 -41 -75 -65 64 -25 146 -70 333 -115 475 -65 207 -74 321
-30 362 11 10 20 25 20 33 0 8 13 21 29 29 16 9 31 24 33 34 3 11 18 22 34 26
16 4 89 37 163 72 130 63 138 70 253 182 116 114 192 211 224 287 l15 37 -25
-6 c-25 -6 -26 -4 -26 34 0 39 -1 40 -27 34 -16 -4 -36 -11 -46 -16 -22 -11
-37 -2 -37 23 0 23 -18 24 -65 2 -34 -16 -36 -16 -74 5 -21 12 -45 22 -54 22
-8 0 -31 -28 -51 -61 -37 -62 -221 -308 -240 -321 -16 -11 -16 -6 -1 57 7 33
19 137 26 232 10 140 10 175 0 187 -18 22 -54 20 -76 -4 -10 -11 -23 -20 -30
-20 -7 0 -20 9 -30 20 -24 26 -38 25 -89 -5 l-43 -25 -23 25 c-31 33 -55 31
-91 -7z m124 -52 c7 4 25 16 40 27 28 19 30 19 68 2 38 -17 42 -17 76 -1 24
11 39 14 46 7 14 -14 -8 -270 -33 -391 -11 -52 -30 -126 -42 -165 l-23 -70
-64 -23 c-35 -12 -66 -20 -69 -17 -3 3 3 82 12 176 10 93 16 173 13 175 -3 3
-12 -5 -20 -18 -10 -15 -19 -68 -24 -155 -5 -73 -13 -136 -17 -140 -4 -5 -17
3 -28 17 -27 33 -104 188 -135 270 -43 113 -67 280 -43 295 6 4 34 1 62 -7 32
-8 53 -9 55 -3 2 6 12 25 23 43 l21 34 35 -31 c19 -18 40 -28 47 -25z m573
-82 c30 -23 38 -25 60 -15 33 15 44 14 44 -4 0 -24 22 -27 63 -10 21 9 42 13
47 10 6 -4 10 -37 10 -74 l0 -67 -95 -105 c-150 -163 -178 -186 -313 -250
-113 -54 -172 -72 -172 -51 0 4 50 43 110 86 102 71 150 120 150 155 0 7 -27
-12 -61 -43 -34 -31 -101 -84 -150 -117 -82 -55 -89 -58 -89 -37 0 44 48 124
173 291 70 93 139 189 154 213 15 24 29 44 31 44 2 0 19 -12 38 -26z m-830
-168 c7 -6 20 -36 29 -66 10 -30 40 -99 66 -152 27 -54 49 -100 49 -103 0 -10
-40 -4 -105 16 -55 17 -78 31 -122 74 -46 47 -53 51 -53 31 0 -54 80 -113 190
-141 36 -9 82 -21 102 -26 43 -11 66 -42 47 -65 -16 -20 -59 -18 -114 6 -25
11 -82 29 -126 40 -116 28 -210 91 -289 190 -41 52 -36 92 13 107 28 8 32 13
29 41 l-2 32 50 0 c47 0 51 2 56 28 l6 28 81 -14 c45 -8 87 -20 93 -26z m-749
-256 c23 -133 27 -182 27 -350 0 -169 -2 -200 -18 -229 -11 -21 -21 -30 -27
-24 -5 5 -30 89 -54 187 -47 188 -88 297 -106 279 -7 -7 1 -45 25 -119 28 -85
35 -124 33 -172 -1 -48 -5 -62 -17 -62 -18 1 -104 133 -155 237 -60 123 -106
339 -76 357 4 3 16 -3 26 -14 25 -28 32 -25 53 18 23 49 42 47 60 -6 18 -56
32 -52 60 18 l9 25 19 -37 c16 -35 19 -37 35 -22 9 8 20 27 24 42 4 15 11 33
17 40 22 26 38 -14 65 -168z m-479 -72 c274 -375 297 -414 265 -450 -15 -17
-19 -14 -84 47 -67 63 -197 145 -231 145 -35 0 -17 -20 45 -51 73 -37 170
-105 210 -147 28 -30 29 -30 11 -57 -16 -25 -22 -27 -65 -22 -67 8 -536 162
-617 202 -74 37 -152 99 -152 120 0 7 22 21 49 30 42 13 52 22 61 49 6 19 19
41 30 51 18 16 21 16 53 -4 19 -11 39 -21 45 -21 6 0 14 20 18 45 7 49 11 52
54 30 33 -17 31 -18 55 53 13 42 20 52 34 47 37 -16 45 -10 60 43 7 28 20 52
27 52 7 0 66 -73 132 -162z m-81 -498 c29 -11 100 -32 158 -46 95 -24 106 -29
103 -47 -4 -27 -69 -47 -237 -76 -67 -11 -132 -26 -144 -33 -22 -13 -21 -13 9
-16 17 -2 95 9 175 24 79 15 156 29 171 31 19 4 29 0 37 -15 9 -18 5 -25 -29
-55 -22 -18 -64 -45 -94 -60 -66 -33 -440 -121 -475 -112 -24 6 -24 6 17 48
57 58 56 72 -5 68 -35 -3 -35 15 -2 54 41 46 30 61 -34 47 l-45 -9 11 24 c9
20 6 27 -16 51 l-27 28 57 18 c32 10 96 36 143 57 99 45 149 49 227 19z m2113
-503 c0 -46 -31 -128 -63 -164 -34 -39 -97 -72 -136 -73 -21 0 -23 3 -17 32
14 73 73 156 143 204 46 31 73 32 73 1z m-1016 -348 c-26 -29 -118 -52 -209
-53 -94 -1 -114 7 -89 35 28 31 121 60 218 67 83 6 91 5 94 -11 2 -10 -4 -27
-14 -38z m1325 -256 c7 -16 31 -77 54 -138 36 -100 40 -119 41 -210 1 -144
-35 -217 -92 -186 -68 36 -92 336 -41 523 12 45 21 48 38 11z m-64 -557 c19
-8 35 -19 35 -24 0 -43 -169 -101 -320 -109 -85 -5 -101 -3 -139 16 -23 12
-41 27 -39 33 2 6 26 24 54 39 83 47 337 75 409 45z"/>
</g>
</svg>
