<?xml version="1.0" standalone="no"?>
<!DOCTYPE svg PUBLIC "-//W3C//DTD SVG 20010904//EN"
 "http://www.w3.org/TR/2001/REC-SVG-20010904/DTD/svg10.dtd">
<svg version="1.0" xmlns="http://www.w3.org/2000/svg"
 width="752.000000pt" height="752.000000pt" viewBox="0 0 752.000000 752.000000"
 preserveAspectRatio="xMidYMid meet">

<g transform="translate(0.000000,752.000000) scale(0.100000,-0.100000)"
fill="#000000" stroke="none">
<path d="M3706 6018 c-9 -12 -16 -35 -16 -50 0 -16 -11 -45 -24 -66 -14 -20
-32 -65 -42 -98 l-17 -61 -33 10 c-23 7 -41 7 -57 0 -19 -9 -28 -6 -50 13 -33
28 -98 32 -150 10 -41 -16 -86 -69 -94 -108 -4 -21 -17 -35 -44 -49 -22 -11
-50 -36 -63 -57 -43 -64 -50 -117 -43 -321 7 -219 25 -313 90 -487 25 -66 53
-145 62 -175 39 -125 36 -448 -9 -839 -28 -238 -52 -366 -95 -492 -30 -87
-126 -322 -143 -348 -12 -20 -4 282 18 625 19 306 14 487 -18 665 -19 103 -23
161 -23 330 0 194 2 211 29 320 53 206 40 369 -35 438 -24 24 -68 28 -100 12
-17 -10 -19 -7 -19 31 0 54 -31 96 -88 121 -51 23 -100 18 -127 -12 -17 -19
-18 -19 -45 10 -73 78 -195 34 -207 -74 l-6 -46 -42 0 c-28 0 -51 -7 -69 -21
l-26 -20 -61 34 c-43 24 -56 36 -45 40 19 7 21 48 4 65 -17 17 -63 15 -78 -2
-27 -34 -8 -59 80 -107 47 -25 85 -51 84 -57 -1 -7 -2 -29 -2 -51 l-2 -39 -50
0 c-83 0 -133 -48 -132 -127 1 -35 -4 -50 -28 -75 -16 -18 -35 -49 -41 -71 -7
-21 -14 -39 -16 -39 -2 0 -18 7 -34 16 -25 12 -28 18 -19 29 16 20 4 62 -21
76 -26 13 -65 5 -73 -17 -10 -27 16 -56 84 -94 34 -19 70 -44 79 -54 9 -10 29
-34 44 -52 l29 -34 -26 -31 c-45 -53 -26 -139 40 -180 19 -11 43 -38 54 -59
24 -47 70 -86 139 -118 73 -33 181 -34 301 -1 62 17 113 23 185 24 92 0 104
-2 153 -30 60 -33 74 -54 90 -140 28 -144 34 -306 21 -554 -11 -234 -26 -362
-28 -246 -2 90 -39 313 -62 364 -12 28 -37 65 -57 82 -30 27 -41 31 -77 27
-26 -3 -49 0 -60 8 -22 17 -59 18 -86 4 -27 -15 -52 -68 -45 -96 6 -22 3 -24
-29 -24 -56 0 -88 -38 -83 -98 2 -40 -1 -51 -25 -74 -40 -40 -37 -87 10 -138
53 -60 173 -147 329 -240 198 -118 184 -100 184 -246 0 -158 -4 -168 -72 -184
-147 -35 -354 -121 -493 -205 -120 -72 -335 -239 -335 -260 0 -16 30 3 97 61
96 85 260 191 388 253 98 48 292 121 321 121 8 0 -13 -23 -48 -52 -97 -79
-287 -274 -351 -360 -91 -123 -162 -247 -149 -260 8 -8 12 -8 12 -2 0 38 179
291 289 407 64 67 292 269 298 264 1 -2 -10 -34 -26 -71 -22 -52 -46 -86 -103
-145 -156 -159 -269 -314 -358 -491 -76 -154 -149 -363 -129 -376 5 -3 11 1
13 8 102 331 216 543 411 761 91 103 113 123 101 91 -68 -172 -151 -460 -177
-614 -16 -92 -19 -412 -4 -417 7 -2 9 31 7 97 -8 201 28 426 110 680 77 237
104 299 151 348 23 23 45 42 49 42 4 0 8 -31 8 -68 0 -88 25 -359 51 -537 27
-195 80 -465 90 -465 13 0 11 16 -10 121 -49 239 -97 614 -107 842 l-6 132 63
61 c61 59 67 62 139 74 273 45 467 127 696 291 52 38 97 62 130 70 101 23 204
-20 344 -146 124 -110 193 -145 290 -145 124 0 220 69 220 159 0 28 3 31 30
31 111 0 228 135 181 209 -7 11 -1 24 19 47 15 18 33 48 40 68 16 48 -10 102
-62 131 l-36 21 19 24 19 25 57 -32 c32 -18 111 -61 176 -94 132 -70 164 -96
173 -145 7 -39 45 -74 81 -74 34 0 73 42 73 79 0 43 -9 60 -41 76 -38 20 -73
19 -93 -4 -17 -19 -18 -18 -41 3 -12 12 -86 55 -164 95 l-140 74 32 17 c30 15
33 15 47 -1 36 -42 117 -38 134 6 27 73 -36 137 -109 109 -9 -4 -25 -24 -35
-45 -26 -49 -51 -63 -105 -54 l-43 6 -4 49 c-3 44 0 52 23 69 40 30 73 104 65
146 -12 63 -77 85 -121 40 -45 -44 -21 -124 42 -140 l28 -7 -25 -18 c-24 -18
-24 -18 -64 16 -22 19 -45 34 -52 34 -10 0 -12 15 -7 63 4 52 2 70 -15 104
-45 87 -118 116 -188 73 l-32 -21 -7 21 c-17 53 -108 62 -163 15 -26 -21 -33
-23 -59 -13 -37 14 -69 6 -120 -31 -70 -51 -118 -136 -175 -315 -55 -173 -90
-250 -173 -385 -76 -122 -111 -160 -222 -234 -202 -134 -393 -208 -650 -251
l-32 -5 49 64 c27 35 52 70 57 78 4 8 85 67 178 132 251 174 304 216 397 313
185 195 445 531 562 726 95 158 79 151 414 171 506 29 695 74 747 175 20 39
19 69 -6 109 -11 18 -19 34 -17 36 2 1 13 8 26 14 32 17 62 69 62 108 0 33
-33 66 -75 75 -16 3 -9 10 31 30 60 32 148 100 168 131 28 43 29 72 3 102 -19
22 -29 27 -50 21 -31 -7 -43 -37 -27 -67 9 -17 18 -20 41 -15 37 7 37 -5 -2
-49 -32 -36 -176 -131 -185 -122 -3 3 -1 14 5 25 14 27 14 88 -1 115 -17 33
-39 46 -80 47 l-36 0 14 47 c16 54 49 93 113 134 53 34 67 36 76 10 3 -10 19
-24 35 -31 25 -10 34 -10 54 3 21 14 24 23 23 74 l-2 58 -37 3 c-31 3 -40 -2
-60 -28 -12 -17 -41 -39 -65 -50 -23 -10 -62 -37 -86 -60 l-45 -41 -25 25
c-14 14 -37 28 -51 32 -16 4 -26 13 -26 24 0 29 -47 77 -86 90 -54 18 -127 8
-168 -23 -28 -22 -46 -27 -89 -27 -82 0 -135 -40 -215 -160 -131 -197 -211
-384 -246 -572 -32 -170 -63 -256 -139 -382 -82 -138 -184 -280 -352 -491
-211 -265 -312 -357 -622 -569 -62 -43 -113 -75 -113 -71 0 3 17 40 39 83 21
42 49 106 62 142 20 54 37 78 105 145 47 46 125 108 183 145 56 36 156 100
222 143 194 127 369 319 369 407 0 64 -65 116 -132 107 -32 -4 -38 -3 -34 10
3 8 6 23 6 33 0 12 10 21 30 25 16 3 42 21 57 39 25 28 34 31 69 28 35 -3 44
0 63 23 28 36 27 70 -4 100 -31 31 -66 32 -102 1 -24 -21 -27 -30 -25 -74 2
-45 -1 -53 -29 -76 -42 -36 -69 -33 -96 10 -20 31 -22 40 -12 78 20 80 -13
149 -78 162 -25 5 -34 1 -52 -21 -25 -33 -26 -55 -6 -95 16 -30 59 -46 95 -35
13 4 20 2 20 -7 0 -29 -16 -35 -78 -30 -62 4 -62 4 -81 47 -27 61 -79 97 -147
103 -50 4 -58 2 -85 -24 -16 -15 -29 -33 -29 -40 0 -19 -20 -28 -33 -15 -34
34 -129 -19 -142 -79 -4 -17 -13 -30 -21 -30 -8 0 -28 -7 -43 -15 -30 -15 -70
-93 -73 -142 0 -15 -4 37 -8 117 -4 84 -3 156 2 170 16 42 56 77 253 218 234
167 317 234 419 336 89 90 132 166 121 216 -9 40 -48 86 -80 94 -24 6 -25 7
-9 32 10 14 18 45 18 69 1 61 -28 91 -88 88 l-43 -1 38 75 c48 95 67 173 51
207 -18 40 -58 61 -87 48 -32 -15 -35 -66 -5 -82 25 -13 60 3 61 28 0 13 2 12
9 -5 12 -29 -10 -115 -50 -192 -33 -66 -50 -83 -50 -51 0 50 -61 120 -104 120
-11 0 -35 -9 -52 -19 l-31 -19 -13 52 c-11 45 -10 61 5 112 9 32 26 73 36 91
20 32 20 32 49 15 27 -15 32 -16 57 -2 32 18 42 60 20 82 -8 8 -16 23 -19 34
-5 30 -62 32 -82 2z m64 -7 c0 -11 -39 -25 -47 -18 -3 3 -2 10 2 16 8 13 45
15 45 2z m28 -63 c5 -25 -33 -42 -60 -27 l-22 12 24 19 c27 22 53 20 58 -4z
m112 -144 c0 -8 -9 -14 -20 -14 -11 0 -20 6 -20 13 0 7 9 13 20 14 11 1 20 -4
20 -13z m-462 -50 c24 -17 30 -44 9 -44 -7 0 -35 -15 -63 -32 -39 -26 -59 -33
-101 -33 -60 0 -63 7 -30 56 41 61 135 89 185 53z m150 -51 c5 -31 -17 -105
-28 -98 -6 4 -10 14 -10 25 0 10 -13 32 -30 50 -16 18 -30 34 -30 36 0 3 10 8
22 13 33 12 72 -2 76 -26z m-80 -37 c8 -7 18 -32 23 -55 9 -39 7 -45 -24 -84
-49 -62 -66 -91 -94 -165 -54 -143 -150 -581 -154 -700 -1 -30 -3 -25 -11 23
-14 86 -2 568 17 694 8 58 25 127 39 156 26 57 88 132 121 146 24 10 65 3 83
-15z m108 -62 c-3 -8 -10 -14 -16 -14 -10 0 -4 43 9 65 8 13 14 -32 7 -51z
m142 30 c46 -32 66 -109 40 -157 -14 -28 -80 -109 -84 -104 -2 1 3 25 11 52
27 88 14 138 -44 167 l-34 17 34 20 c41 25 48 26 77 5z m-441 -18 c2 -2 -5
-19 -17 -38 -53 -90 -79 -299 -81 -638 l-1 -215 -20 70 c-26 94 -34 291 -18
426 7 57 12 105 11 107 -19 33 -40 -107 -42 -273 -1 -85 4 -154 14 -200 27
-126 28 -131 1 -65 -60 149 -91 368 -82 579 6 156 43 221 138 250 31 9 87 7
97 -3z m374 -55 c20 -16 24 -28 23 -73 -2 -60 -41 -168 -83 -225 -68 -94 -261
-458 -321 -605 -13 -32 -25 -56 -28 -54 -7 7 39 176 80 296 22 63 68 175 104
249 35 74 64 135 64 137 0 2 -5 4 -11 4 -15 0 -126 -236 -176 -374 -23 -67
-40 -103 -37 -81 14 91 58 286 89 395 55 191 98 269 177 322 48 33 87 36 119
9z m267 -73 c17 -17 15 -89 -3 -114 -12 -18 -28 -22 -112 -27 -54 -3 -107 -9
-117 -13 -24 -9 98 137 127 153 28 16 90 16 105 1z m-1450 -39 c17 -6 38 -21
47 -35 15 -24 15 -24 -19 -24 -40 0 -72 -33 -82 -85 l-6 -33 -34 20 c-18 11
-36 28 -39 39 -17 54 33 124 91 128 6 1 25 -4 42 -10z m240 -39 c56 -34 68
-108 30 -181 -12 -23 -24 -67 -26 -97 l-5 -55 -21 74 c-24 83 -60 151 -100
188 -30 28 -32 38 -10 69 20 29 86 30 132 2z m-675 -7 c-7 -2 -13 -14 -13 -26
0 -16 -3 -18 -11 -10 -16 16 -4 43 18 42 11 0 13 -3 6 -6z m532 -74 c59 -55
98 -157 136 -359 16 -85 42 -207 58 -270 17 -63 29 -116 27 -117 -5 -5 -138
237 -166 304 -16 37 -37 107 -47 156 -17 86 -33 114 -33 59 0 -61 41 -184 100
-303 34 -68 58 -119 52 -114 -5 6 -47 66 -92 135 -132 198 -177 315 -168 437
8 117 56 143 133 72z m1358 -13 c79 -29 98 -72 65 -148 -14 -33 -52 -78 -126
-150 -119 -116 -213 -190 -412 -328 -74 -51 -147 -104 -162 -118 -33 -30 -50
-22 -21 11 11 12 100 114 198 227 98 113 191 219 207 236 18 19 25 34 20 38
-6 4 -88 -83 -183 -191 -94 -109 -183 -209 -196 -223 l-24 -25 17 40 c56 136
244 486 302 563 28 37 70 62 122 73 58 11 153 9 193 -5z m1247 -11 c32 -17 60
-51 60 -75 0 -13 -14 -16 -77 -15 -68 1 -83 5 -120 29 -47 31 -46 41 1 62 41
18 100 17 136 -1z m460 0 c0 -8 -6 -15 -14 -15 -7 0 -19 7 -26 15 -11 13 -8
15 14 15 16 0 26 -5 26 -15z m-3269 -32 c46 -25 49 -28 49 -67 0 -23 6 -65 13
-93 l13 -51 -63 63 c-35 34 -88 80 -118 100 -60 42 -64 49 -37 64 31 19 92 12
143 -16z m525 -10 c68 -69 77 -214 25 -437 -19 -81 -35 -185 -39 -250 l-8
-111 -13 98 c-9 71 -11 158 -5 317 5 150 4 220 -3 220 -13 0 -28 -383 -19
-489 3 -41 4 -72 2 -70 -2 2 -23 78 -46 169 -40 157 -43 173 -44 320 -1 135 1
159 18 186 35 58 98 80 132 47z m2114 -26 c24 -13 45 -27 47 -32 2 -6 -17 -21
-43 -34 -93 -50 -231 -220 -411 -508 -51 -82 -97 -155 -102 -163 -18 -28 46
154 74 210 37 73 93 155 166 242 61 73 67 111 7 42 -111 -124 -188 -248 -239
-382 -26 -69 -29 -72 -23 -32 20 146 140 403 271 582 69 95 163 123 253 75z
m626 11 c9 -15 -24 -38 -44 -31 -18 7 -32 22 -32 36 0 12 68 8 76 -5z m-3370
-51 c61 -46 153 -139 193 -194 12 -18 20 -33 18 -33 -2 0 -25 9 -50 20 -25 11
-72 23 -106 26 -55 6 -62 10 -85 43 -56 81 -76 181 -35 181 4 0 33 -20 65 -43z
m2937 -8 c30 -16 37 -28 37 -67 0 -42 -26 -92 -48 -92 -33 0 -147 -62 -217
-118 -99 -80 -270 -248 -369 -361 -46 -53 -96 -109 -110 -126 -68 -78 216 381
322 520 104 136 196 216 276 241 52 16 82 17 109 3z m97 -4 c49 -25 49 -54 0
-97 -24 -21 -44 -37 -46 -35 -2 2 1 20 7 42 8 27 8 45 0 62 -10 22 -8 43 5 43
3 0 18 -7 34 -15z m-3124 -72 c9 -16 25 -40 35 -55 11 -15 19 -29 19 -31 0 -3
-21 -8 -46 -12 -66 -9 -95 -25 -109 -58 l-12 -28 -31 36 c-71 80 -25 174 85
175 36 0 45 -4 59 -27z m3144 -62 c-6 -12 -21 -21 -33 -21 -21 0 -20 2 8 24
34 28 41 27 25 -3z m333 3 c-6 -16 -29 -19 -38 -4 -10 16 3 29 24 23 12 -3 17
-11 14 -19z m-224 -60 c34 -44 23 -112 -26 -156 -19 -17 -133 -62 -140 -55 -1
2 14 17 35 34 21 17 46 50 57 73 19 42 19 43 -10 113 -6 14 -2 17 28 17 26 0
41 -7 56 -26z m-120 1 c66 -34 39 -117 -61 -191 -34 -25 -111 -69 -173 -98
-140 -67 -295 -155 -459 -263 -70 -46 -130 -82 -132 -80 -7 7 204 192 293 258
64 47 153 105 273 178 8 5 12 12 8 16 -14 15 -246 -133 -368 -233 -30 -25 -64
-53 -75 -61 -45 -36 157 179 245 260 196 181 271 227 373 228 26 1 61 -6 76
-14z m-2883 -29 c32 -15 70 -37 83 -49 34 -31 228 -327 274 -417 21 -41 31
-66 22 -55 -101 126 -203 237 -261 285 -87 69 -178 123 -201 118 -13 -3 -5
-11 27 -27 76 -40 132 -81 214 -160 99 -96 299 -340 225 -275 -45 39 -143 100
-304 189 -199 109 -287 169 -359 245 -46 48 -56 65 -56 93 0 65 53 88 191 83
68 -3 99 -9 145 -30z m-394 -33 c20 -21 39 -48 42 -60 4 -12 26 -40 49 -64 28
-28 35 -40 22 -36 -11 4 -50 13 -87 22 -126 29 -141 39 -128 86 9 32 47 89 59
89 4 0 23 -17 43 -37z m-246 -10 c-11 -11 -19 6 -11 24 8 17 8 17 12 0 3 -10
2 -21 -1 -24z m44 1 c0 -8 -4 -14 -10 -14 -5 0 -10 9 -10 21 0 11 5 17 10 14
6 -3 10 -13 10 -21z m3669 -137 c39 -18 40 -65 3 -105 -17 -18 -40 -32 -52
-32 -12 0 -48 16 -80 36 -32 20 -75 42 -96 49 l-37 12 89 31 c90 32 123 33
173 9z m-3411 -23 c83 -21 191 -69 179 -80 -2 -2 -18 1 -36 7 -18 6 -53 9 -79
6 -62 -7 -113 9 -162 50 -45 39 -52 58 -17 47 12 -4 64 -17 115 -30z m3235
-76 c181 -90 203 -218 47 -273 -126 -45 -314 -71 -635 -89 -138 -8 -259 -17
-270 -21 -19 -6 -19 -6 -2 8 9 8 142 52 295 97 152 45 299 89 326 97 29 9 45
18 40 23 -6 6 -124 -25 -289 -75 -154 -46 -281 -83 -282 -81 -8 7 285 185 436
264 189 100 224 105 334 50z m-3278 1 l31 -12 -23 -45 c-13 -25 -23 -60 -23
-79 0 -38 -8 -41 -39 -12 -46 43 -53 98 -16 134 28 29 28 29 70 14z m283 -58
c75 -32 324 -172 319 -178 -1 -1 -38 7 -82 18 -44 10 -111 19 -150 19 -38 0
-101 5 -140 10 -38 5 -74 6 -79 3 -20 -13 44 -24 184 -33 147 -9 256 -32 328
-69 l35 -18 -94 -6 c-52 -3 -128 -15 -169 -26 -101 -28 -219 -28 -280 0 -67
30 -110 67 -131 113 -23 51 -24 94 -2 147 32 81 108 87 261 20z m1637 -114
c41 -59 -20 -113 -70 -63 -30 30 -32 49 -6 75 23 23 55 18 76 -12z m-237 -21
c36 -18 58 -44 76 -88 14 -33 14 -37 -4 -53 -18 -16 -19 -16 -35 20 -17 42
-41 64 -68 65 -32 0 -77 -30 -107 -72 l-30 -41 0 35 c0 46 18 97 43 126 24 26
83 30 125 8z m522 -46 c24 -24 25 -38 4 -68 -16 -24 -44 -28 -75 -12 -27 15
-25 64 3 84 30 21 44 20 68 -4z m-1363 -12 c-3 -8 -6 -5 -6 6 -1 11 2 17 5 13
3 -3 4 -12 1 -19z m635 -15 c24 -22 24 -123 -2 -218 l-18 -70 -7 40 c-10 62
-36 114 -68 137 -23 17 -27 25 -22 47 8 34 54 81 79 81 10 0 28 -7 38 -17z
m206 -24 c23 -24 32 -62 32 -133 0 -110 -40 -207 -175 -426 -87 -141 -89 -142
-23 -10 48 95 98 262 98 326 0 57 -17 38 -24 -27 -4 -33 -16 -91 -28 -127 -20
-66 -158 -366 -165 -359 -1 2 10 69 26 148 16 79 37 200 46 269 10 69 26 149
36 179 35 99 99 179 146 181 7 0 21 -9 31 -21z m212 -49 c12 -7 6 -21 -32 -77
-26 -37 -71 -92 -101 -121 l-55 -54 14 53 c8 29 14 76 14 104 0 52 19 83 60
98 25 9 84 7 100 -3z m64 -45 c16 -24 16 -26 -9 -35 -14 -5 -40 -17 -57 -26
l-32 -17 17 27 c9 14 24 37 33 51 20 31 28 31 48 0z m-608 -1 c22 -10 43 -32
57 -58 20 -37 22 -54 21 -191 -2 -135 -6 -170 -44 -350 -23 -110 -44 -202 -47
-205 -3 -3 -3 13 1 35 30 190 31 301 6 448 -14 77 -37 94 -26 20 28 -199 30
-286 7 -394 -6 -29 -8 -23 -14 44 -4 42 -25 147 -47 233 -57 221 -54 342 10
406 33 33 32 33 76 12z m624 -79 c0 -17 -17 -43 -52 -79 -46 -47 -60 -56 -108
-64 -30 -6 -68 -16 -85 -22 -48 -18 83 109 158 154 73 43 87 44 87 11z m114
-45 c53 -20 65 -87 27 -152 -19 -34 -29 -35 -33 -7 -5 34 -47 58 -118 67 l-65
8 35 33 c56 54 104 70 154 51z m-834 -340 c29 -105 32 -131 37 -305 l6 -190
-50 -120 c-81 -194 -101 -221 -231 -314 -62 -44 -117 -83 -122 -86 -5 -3 6 31
26 77 135 313 184 469 213 678 17 118 51 459 52 520 1 52 2 49 19 -45 10 -55
32 -152 50 -215z m787 205 c16 -11 23 -25 23 -46 0 -82 -96 -171 -390 -359
-96 -61 -204 -135 -240 -163 -64 -51 -64 -52 -43 -17 118 188 246 329 368 405
84 53 88 74 5 29 -97 -53 -222 -175 -324 -318 -31 -43 -56 -75 -56 -72 0 14
96 197 148 281 30 50 73 120 94 157 34 56 47 69 88 87 27 12 73 25 102 30 71
13 196 5 225 -14z m561 -2 c19 -26 14 -52 -16 -92 -16 -20 -33 -43 -38 -52 -5
-9 -32 -38 -61 -63 l-51 -46 19 50 c22 57 24 93 8 139 -13 37 -2 56 46 77 35
16 75 10 93 -13z m197 -36 c65 -65 73 -188 12 -195 -25 -3 -26 -2 -17 23 15
40 12 61 -14 92 -20 23 -31 27 -70 25 -25 -1 -59 -8 -76 -17 -16 -8 -32 -15
-35 -15 -16 0 34 66 69 91 53 39 89 38 131 -4z m-380 -1 c33 -33 41 -71 26
-125 -29 -108 -142 -261 -337 -459 -143 -144 -145 -143 -24 6 88 108 204 332
183 353 -5 5 -28 -36 -51 -89 -44 -102 -116 -219 -177 -287 l-36 -40 40 81
c22 44 55 132 74 195 68 223 112 304 195 359 55 36 75 37 107 6z m350 -99 c28
-43 -8 -130 -89 -215 -66 -71 -156 -129 -314 -202 -70 -33 -119 -54 -108 -47
10 7 53 34 95 61 85 54 241 205 241 233 0 12 -24 -8 -69 -58 -81 -88 -175
-155 -416 -297 -5 -3 42 50 106 118 64 69 153 168 196 220 44 52 97 108 118
124 111 85 209 110 240 63z m265 -2 c16 -20 15 -85 -1 -96 -37 -23 -89 5 -89
48 0 47 62 81 90 48z m-2434 -59 c16 -11 20 -23 16 -46 -4 -28 -7 -31 -29 -25
-16 4 -35 0 -50 -10 -27 -18 -30 -18 -33 5 -5 32 1 51 20 70 24 24 48 25 76 6z
m134 -33 c47 -42 77 -140 95 -301 29 -268 31 -264 -34 -71 -55 166 -102 263
-144 298 -19 15 -21 38 -7 75 13 35 51 34 90 -1z m2137 -34 c29 -11 73 -47 73
-59 0 -19 -252 -110 -303 -110 -6 0 18 30 52 68 33 37 70 77 81 90 21 24 53
28 97 11z m-2237 -55 c41 -35 80 -114 133 -271 66 -193 64 -200 -14 -53 -80
151 -77 146 -85 137 -4 -4 30 -79 75 -167 82 -161 103 -214 38 -97 -43 76
-140 225 -190 290 -46 61 -76 149 -57 171 19 24 65 19 100 -10z m-119 -59 c10
-33 19 -60 19 -60 0 0 -30 1 -66 2 -72 2 -84 9 -84 56 0 40 33 69 77 65 34 -3
36 -6 54 -63z m2449 -8 l0 -34 -60 10 -60 10 47 23 c65 31 73 30 73 -9z m282
16 c35 -32 13 -93 -34 -93 -49 0 -74 56 -41 92 20 22 51 23 75 1z m-297 -73
c12 -19 -42 -54 -106 -68 -35 -7 -68 -13 -74 -13 -16 1 -165 54 -162 58 24 24
329 45 342 23z m-2396 -37 c30 -22 123 -156 200 -287 l53 -89 -61 54 c-149
132 -207 179 -221 178 -8 0 10 -21 40 -47 30 -26 91 -82 135 -126 88 -86 88
-86 -88 22 -100 61 -223 156 -255 197 -41 52 -22 102 44 116 57 11 123 4 153
-18z m2146 -43 c76 -32 172 -100 191 -136 17 -30 17 -34 1 -58 -46 -69 -130
-85 -512 -96 -165 -5 -322 -11 -350 -14 l-50 -6 80 40 c165 81 351 130 501
130 61 0 83 3 78 11 -5 8 -42 10 -123 6 -134 -6 -254 -34 -403 -95 -54 -22
-98 -39 -98 -38 0 10 199 124 345 198 166 85 171 87 230 83 33 -2 83 -13 110
-25z m275 -15 c60 -31 68 -99 19 -158 -37 -44 -76 -49 -71 -8 6 40 -19 81 -75
121 l-55 39 34 10 c51 14 116 13 148 -4z m-740 -80 c0 -2 -10 -9 -22 -15 -22
-11 -22 -10 -4 4 21 17 26 19 26 11z m1267 -47 c30 -28 30 -72 1 -92 -29 -21
-51 -20 -70 2 -59 67 5 151 69 90z m-543 -104 c42 -42 -10 -132 -96 -169 -56
-23 -81 -19 -106 15 -28 38 -66 57 -145 74 l-62 14 45 1 c70 2 227 37 263 59
39 25 80 27 101 6z m-376 -100 c46 -8 97 -21 112 -29 90 -47 76 -166 -25 -219
-30 -16 -58 -21 -115 -21 -97 0 -137 20 -266 130 -55 46 -126 100 -159 120
-49 29 -54 35 -30 31 135 -22 180 -32 245 -57 42 -16 109 -51 150 -78 41 -27
77 -45 79 -40 4 13 -17 29 -102 80 -62 37 -135 67 -237 98 -52 16 244 3 348
-15z m-1497 -253 c-6 -10 -29 -39 -53 -65 -35 -38 -51 -47 -88 -52 l-45 -6 95
71 c52 38 96 70 98 71 1 0 -2 -8 -7 -19z m-151 -176 c-41 -43 -50 -44 -50 -6
0 30 11 38 59 40 24 1 24 0 -9 -34z m-100 -89 l-32 -31 17 40 c9 22 22 54 28
70 l12 30 3 -39 c3 -33 -2 -44 -28 -70z"/>
</g>
</svg>
