<?xml version="1.0" standalone="no"?>
<!DOCTYPE svg PUBLIC "-//W3C//DTD SVG 20010904//EN"
 "http://www.w3.org/TR/2001/REC-SVG-20010904/DTD/svg10.dtd">
<svg version="1.0" xmlns="http://www.w3.org/2000/svg"
 width="752.000000pt" height="752.000000pt" viewBox="0 0 752.000000 752.000000"
 preserveAspectRatio="xMidYMid meet">

<g transform="translate(0.000000,752.000000) scale(0.100000,-0.100000)"
fill="#000000" stroke="none">
<path d="M5605 5726 c-88 -19 -191 -44 -230 -56 -406 -127 -590 -339 -719
-830 -19 -69 -44 -147 -57 -172 l-24 -47 0 127 c0 151 -16 202 -96 305 l-49
65 17 30 c14 24 15 37 8 59 -13 36 -46 41 -85 13 -50 -35 -34 -109 23 -110 15
-1 37 -21 68 -63 131 -174 139 -297 41 -594 l-49 -148 -7 80 c-23 269 -100
474 -253 672 -53 70 -209 225 -246 244 -16 9 -16 5 3 -43 44 -115 88 -303 94
-398 13 -222 87 -384 252 -548 35 -35 76 -83 90 -108 26 -45 27 -47 15 -127
-20 -148 -30 -331 -32 -584 -1 -219 -3 -244 -15 -216 -13 30 -26 122 -54 370
-43 385 -240 651 -745 1000 -160 111 -206 138 -278 162 -75 26 -147 37 -147
22 0 -6 21 -39 46 -73 63 -86 121 -212 189 -408 112 -324 175 -456 273 -578
76 -95 155 -154 355 -269 197 -112 288 -183 339 -262 l28 -45 0 -358 0 -358
-40 -80 c-48 -96 -70 -173 -101 -352 -13 -79 -26 -132 -31 -125 -4 6 -8 55 -8
107 0 100 8 135 84 383 30 98 36 133 36 206 0 137 -24 200 -130 335 -110 142
-151 247 -154 393 0 50 -4 89 -8 87 -7 -4 -86 -241 -112 -334 -54 -198 -67
-445 -32 -610 37 -172 121 -369 219 -517 29 -43 57 -84 61 -92 15 -23 -224
161 -302 234 -249 232 -398 576 -341 790 19 74 91 215 109 215 43 0 66 73 33
102 -33 27 -73 39 -94 28 -30 -16 -27 -93 5 -117 l23 -18 -43 -87 c-73 -151
-79 -281 -20 -444 14 -38 24 -70 22 -71 -8 -8 -191 296 -203 338 -19 64 -5
155 42 282 52 139 60 186 46 283 -25 182 -110 367 -315 684 -44 69 -81 127
-83 129 -7 9 -42 -32 -68 -80 -76 -141 -73 -335 9 -549 13 -36 84 -198 156
-360 73 -162 135 -302 138 -310 3 -8 -19 14 -48 50 -107 129 -364 368 -493
458 -126 88 -287 157 -444 189 -73 15 -139 18 -388 18 -165 0 -309 -4 -320 -8
-16 -7 -10 -12 37 -31 84 -34 142 -71 220 -139 248 -218 302 -254 424 -282 86
-21 152 -9 298 54 175 75 249 86 327 45 49 -25 281 -257 366 -366 62 -79 363
-529 363 -542 0 -2 -78 75 -172 169 -95 95 -209 199 -253 231 -158 116 -326
175 -506 177 -81 2 -105 5 -102 15 8 21 -18 42 -52 42 -63 0 -88 -70 -39 -109
36 -28 48 -27 78 11 25 33 26 33 103 30 271 -10 479 -120 752 -396 l94 -95
-105 53 c-137 69 -243 98 -380 104 -103 4 -108 6 -108 27 0 30 -30 55 -66 55
-42 0 -54 -16 -54 -72 0 -50 24 -88 55 -88 19 0 65 44 65 61 0 17 163 4 270
-22 100 -23 262 -99 339 -158 30 -23 117 -106 194 -186 l139 -145 -74 39
c-227 121 -456 150 -703 87 -108 -28 -287 -36 -327 -15 -28 15 -35 3 -12 -22
33 -37 194 -158 258 -193 126 -71 261 -87 435 -53 163 33 224 24 411 -59 83
-38 88 -38 211 -39 126 -1 126 -1 167 -33 46 -37 65 -42 35 -9 -11 12 -26 32
-32 44 -11 21 -8 24 41 49 179 90 371 280 531 524 102 157 316 599 305 632 -2
6 -20 -11 -40 -36 -102 -132 -219 -251 -316 -322 -169 -125 -293 -281 -393
-494 -27 -58 -67 -141 -89 -184 -22 -43 -39 -81 -36 -83 6 -7 42 61 109 207
116 251 244 418 416 539 86 62 168 141 277 272 18 22 34 38 34 34 0 -17 -97
-229 -153 -335 -154 -293 -318 -505 -498 -645 -50 -39 -177 -115 -192 -115
-15 0 28 287 59 390 9 30 37 95 62 145 40 79 46 97 43 145 -5 100 66 246 171
351 27 27 88 74 138 106 49 32 136 89 194 126 154 100 262 224 296 342 6 22
15 111 20 197 5 86 16 186 24 222 17 72 63 179 97 227 11 16 19 32 16 35 -6 7
-62 -82 -86 -139 -38 -88 -53 -171 -61 -332 -9 -169 -21 -224 -68 -305 -63
-110 -132 -170 -373 -320 -162 -101 -257 -192 -317 -300 -44 -79 -51 -74 -31
22 41 202 178 467 425 818 89 127 177 238 275 346 91 100 214 215 233 218 16
2 101 94 94 101 -5 5 -259 -153 -355 -221 -379 -268 -571 -562 -668 -1022
l-24 -117 2 255 2 255 36 76 c28 58 50 88 98 130 35 30 72 54 85 55 42 2 56
12 56 42 0 39 -44 81 -68 65 -12 -7 -17 -24 -16 -55 0 -40 -4 -48 -31 -66 -53
-37 -93 -85 -130 -157 l-36 -70 6 110 c5 93 10 120 35 173 41 88 124 168 221
214 71 34 119 75 119 103 0 26 38 48 72 41 106 -20 108 -20 133 4 36 34 42 65
59 280 9 107 18 216 20 243 3 27 1 47 -5 47 -5 0 -32 -11 -60 -25 -71 -36
-153 -123 -255 -270 -49 -70 -117 -160 -153 -199 -81 -90 -119 -146 -148 -216
-19 -46 -23 -50 -23 -26 0 49 30 234 54 329 27 106 81 254 138 379 l40 87 166
128 c299 230 417 297 618 352 271 74 316 110 404 325 47 117 70 155 115 195
44 39 35 45 -80 48 -72 2 -122 -4 -250 -31z m304 20 c-2 -3 -65 -17 -139 -32
-291 -58 -488 -150 -657 -307 -129 -120 -278 -317 -403 -533 -60 -104 -60 -87
1 99 81 248 197 428 344 532 131 93 301 157 560 211 134 27 310 45 294 30z
m-139 -102 c-318 -180 -631 -421 -959 -739 l-145 -140 39 70 c112 205 228 367
359 503 190 197 363 287 681 356 171 38 173 34 25 -50z m100 10 c-16 -25 -45
-88 -65 -140 -68 -175 -127 -233 -284 -280 -307 -90 -395 -133 -601 -289 -186
-142 -194 -145 -90 -43 275 269 595 522 860 678 135 79 204 119 207 120 2 0
-11 -21 -27 -46z m-1795 -609 c44 -88 98 -231 170 -442 58 -172 105 -315 105
-318 0 -13 -128 123 -159 168 -81 119 -125 258 -135 432 -5 79 -25 168 -71
310 l-7 20 17 -20 c9 -11 45 -78 80 -150z m127 -29 c146 -195 237 -481 226
-706 l-3 -65 -18 115 c-43 267 -120 492 -218 637 -48 71 -140 185 -146 180 -2
-3 20 -35 49 -71 116 -145 209 -334 257 -521 21 -86 65 -365 57 -372 -7 -7
-101 243 -151 402 -58 186 -122 350 -186 478 -27 54 -44 95 -38 91 9 -5 10 -2
6 12 -10 27 96 -87 165 -180z m228 179 c11 -13 8 -15 -14 -15 -16 0 -26 5 -26
15 0 8 6 15 14 15 7 0 19 -7 26 -15z m-54 -11 c-3 -9 -6 -23 -6 -32 0 -12 -3
-13 -11 -5 -13 13 -3 53 13 53 5 0 7 -7 4 -16z m58 -23 c3 -5 -1 -14 -9 -21
-8 -7 -15 -10 -15 -7 0 3 -3 12 -6 21 -7 17 20 23 30 7z m-1193 -357 c106 -31
266 -133 499 -318 368 -293 514 -537 549 -916 7 -69 14 -143 17 -165 4 -33 -2
-25 -34 50 -91 209 -257 509 -365 660 -87 120 -302 379 -358 430 -70 63 -215
170 -309 229 -81 50 -81 54 1 30z m24 -96 c124 -135 195 -255 320 -533 37 -82
83 -177 103 -210 44 -75 125 -178 160 -206 133 -103 386 -346 417 -400 19 -33
18 -33 -48 19 -36 29 -131 90 -209 134 -190 108 -242 144 -314 220 -123 128
-183 247 -308 607 -66 189 -127 326 -180 404 -41 60 -13 43 59 -35z m116 -49
c170 -125 187 -143 442 -459 126 -156 313 -475 417 -713 33 -75 60 -140 60
-144 0 -4 -15 14 -33 40 -51 72 -91 112 -273 269 -93 81 -186 168 -207 193
-63 75 -121 176 -192 338 -37 83 -82 181 -100 217 -44 88 -145 240 -197 297
-51 55 -31 46 83 -38z m1615 -94 c-63 -142 -143 -251 -320 -435 -127 -132
-212 -247 -262 -352 l-24 -53 5 50 c17 141 64 237 184 373 50 56 118 142 150
191 90 134 157 209 224 252 33 22 62 37 64 35 2 -2 -8 -29 -21 -61z m19 -181
c-24 -299 -38 -327 -150 -298 -69 18 -91 8 -120 -56 -17 -37 -28 -47 -101 -81
-48 -23 -107 -61 -141 -92 l-57 -52 29 50 c44 77 102 148 243 297 136 143 227
268 277 379 17 37 31 66 33 64 2 -2 -4 -97 -13 -211z m-1920 -292 c164 -252
267 -463 300 -616 26 -115 17 -207 -29 -326 -20 -52 -43 -128 -50 -170 l-13
-75 -11 55 c-6 30 -18 109 -27 175 -19 139 -47 231 -138 442 -115 267 -147
400 -128 538 6 42 11 78 11 81 0 19 25 -12 85 -104z m2093 -34 c-184 -182
-335 -376 -520 -667 -144 -226 -265 -478 -269 -558 0 -10 -3 -13 -5 -6 -3 7 4
70 16 140 70 413 245 727 541 969 59 48 345 244 356 244 2 0 -51 -55 -119
-122z m-2203 -5 c0 -150 20 -227 120 -463 101 -237 122 -303 141 -439 9 -64
22 -145 29 -181 7 -36 12 -66 11 -67 -3 -3 -284 637 -316 719 -57 148 -74 300
-45 411 13 48 50 137 58 137 1 0 2 -53 2 -117z m1635 -303 c0 -5 -7 -10 -15
-10 -8 0 -15 5 -15 10 0 6 7 10 15 10 8 0 15 -4 15 -10z m30 -26 c0 -8 -5 -12
-10 -9 -6 4 -8 11 -5 16 9 14 15 11 15 -7z m-45 -4 c-3 -5 -10 -10 -16 -10 -5
0 -9 5 -9 10 0 6 7 10 16 10 8 0 12 -4 9 -10z m-2482 -90 c187 -16 355 -67
507 -156 71 -41 167 -112 190 -140 14 -16 13 -16 -15 -2 -80 42 -204 60 -322
48 -122 -13 -196 2 -352 71 -216 96 -321 136 -404 155 l-82 19 50 6 c83 10
303 9 428 -1z m-309 -64 c55 -19 161 -62 234 -95 231 -106 232 -106 422 -103
122 1 179 -2 224 -13 81 -21 88 -31 26 -38 -28 -3 -88 -23 -133 -42 -159 -71
-188 -79 -267 -79 -135 1 -223 49 -430 234 -68 61 -143 123 -167 137 -78 45
-47 45 91 -1z m2246 -471 c16 -34 65 -109 108 -167 87 -116 110 -169 119 -270
7 -85 -6 -150 -69 -346 -51 -155 -52 -159 -52 -286 l-1 -128 -41 86 c-49 104
-77 201 -104 362 -48 290 -64 644 -38 866 l12 103 18 -79 c10 -43 31 -106 48
-141z m-93 135 c-17 -109 -14 -496 6 -660 34 -278 67 -434 117 -552 16 -38 27
-68 26 -68 -2 0 -29 43 -61 95 -196 328 -247 686 -149 1035 34 122 65 222 68
219 2 -2 -1 -33 -7 -69z m-367 -15 c0 -17 -43 -38 -48 -23 -5 12 18 38 34 38
8 0 14 -7 14 -15z m46 -22 c4 -16 1 -30 -8 -40 -14 -13 -15 -12 -11 10 3 14 0
28 -6 31 -6 4 -11 14 -11 21 0 23 30 5 36 -22z m-53 -33 c-5 -20 -23 -26 -36
-13 -9 8 12 33 28 33 8 0 11 -8 8 -20z m-1094 -190 c-18 -17 -27 -35 -23 -41
4 -8 3 -9 -4 -5 -7 4 -12 14 -12 22 0 18 36 54 54 54 9 0 3 -11 -15 -30z m36
-11 c4 -6 -2 -13 -14 -16 -11 -3 -18 -9 -15 -14 3 -5 0 -9 -5 -9 -14 0 -14 6
-1 31 12 21 25 25 35 8z m343 -291 c7 -7 12 -23 11 -37 0 -26 0 -26 -9 -3 -11
27 -30 29 -37 2 -6 -21 -23 -18 -23 5 0 14 26 45 39 45 4 0 12 -5 19 -12z
m-66 -23 c-6 -33 14 -55 50 -55 33 0 34 -15 2 -37 -17 -11 -23 -10 -42 3 -17
12 -22 25 -22 58 0 36 6 56 15 56 1 0 0 -11 -3 -25z m58 -25 c0 -5 -4 -10 -10
-10 -5 0 -10 5 -10 10 0 6 5 10 10 10 6 0 10 -4 10 -10z m661 -419 c94 -24
233 -85 326 -142 77 -47 266 -190 259 -196 -9 -9 -138 42 -216 87 -277 155
-327 166 -601 135 -155 -19 -260 -10 -387 30 -112 36 -120 45 -39 45 37 0 126
13 200 29 72 16 146 32 162 34 56 10 221 -3 296 -22z m-702 -71 c122 -62 298
-81 519 -56 219 25 280 10 524 -125 71 -39 154 -80 186 -90 l57 -19 -105 3
c-101 3 -109 5 -206 50 -156 72 -195 76 -403 41 -98 -16 -198 -18 -261 -3 -85
19 -219 97 -328 191 -39 33 -35 35 17 8z"/>
<path d="M4622 2913 c-33 -13 -53 -95 -31 -134 9 -17 6 -24 -18 -42 -15 -11
-45 -38 -65 -59 -41 -41 -122 -157 -116 -164 2 -2 27 29 55 70 28 40 75 94
106 119 46 40 59 46 84 41 32 -6 70 8 90 35 43 56 -38 161 -105 134z m28 -13
c-20 -13 -33 -13 -25 0 3 6 14 10 23 10 15 0 15 -2 2 -10z m30 -40 c0 -17 -7
-20 -47 -20 -45 0 -46 0 -28 20 10 11 31 20 47 20 21 0 28 -5 28 -20z m40 -39
c0 -29 -26 -61 -49 -61 -13 1 -13 2 2 11 10 6 17 20 16 32 -2 12 1 33 5 46 6
18 10 21 17 10 5 -8 9 -25 9 -38z m-66 0 c3 -4 -4 -17 -15 -26 -18 -17 -21
-17 -35 -3 -9 9 -13 21 -10 27 8 13 53 15 60 2z m26 -15 c0 -2 -8 -10 -17 -17
-16 -13 -17 -12 -4 4 13 16 21 21 21 13z"/>
</g>
</svg>
