<?xml version="1.0" standalone="no"?>
<!DOCTYPE svg PUBLIC "-//W3C//DTD SVG 20010904//EN"
 "http://www.w3.org/TR/2001/REC-SVG-20010904/DTD/svg10.dtd">
<svg version="1.0" xmlns="http://www.w3.org/2000/svg"
 width="752.000000pt" height="752.000000pt" viewBox="0 0 752.000000 752.000000"
 preserveAspectRatio="xMidYMid meet">

<g transform="translate(0.000000,752.000000) scale(0.100000,-0.100000)"
fill="#000000" stroke="none">
<path d="M4729 5666 c-25 -6 -66 -24 -91 -39 -38 -22 -59 -27 -115 -27 -186 0
-333 -92 -418 -260 -50 -99 -66 -169 -72 -320 -10 -231 29 -426 123 -619 48
-98 66 -124 137 -195 45 -45 93 -87 107 -93 14 -7 50 -24 80 -37 30 -14 80
-39 110 -55 32 -18 86 -36 128 -43 l73 -12 -3 -601 -4 -600 -26 -97 c-65 -239
-197 -435 -388 -577 -305 -227 -718 -264 -1053 -95 -115 57 -178 103 -278 203
-150 151 -238 313 -280 516 -14 69 -19 134 -19 277 l0 187 38 6 c74 11 148 37
197 69 28 18 62 37 75 41 181 56 334 264 404 547 107 436 8 809 -246 928 -68
32 -193 56 -241 46 -23 -5 -41 1 -76 23 -110 70 -254 68 -363 -4 -31 -21 -48
-25 -73 -21 -55 11 -165 -12 -241 -49 -90 -44 -163 -120 -209 -217 -49 -104
-66 -176 -72 -313 -20 -427 174 -847 432 -936 22 -8 58 -26 81 -41 41 -27 140
-62 205 -73 l37 -5 4 -213 c5 -188 8 -223 32 -312 80 -304 285 -559 563 -699
223 -113 487 -142 726 -82 211 54 366 145 517 303 138 144 216 283 271 484 23
83 23 92 27 695 l3 611 54 7 c66 7 148 39 192 72 18 14 54 32 81 40 178 58
340 296 403 594 19 87 23 137 23 295 1 181 -1 194 -27 271 -76 227 -239 354
-454 354 -61 0 -80 4 -111 25 -41 27 -139 55 -187 54 -16 0 -51 -6 -76 -13z
m169 -51 c29 -9 52 -20 52 -25 0 -16 -25 -17 -54 -3 -34 17 -129 19 -169 4
-38 -15 -75 -15 -60 0 37 37 148 48 231 24z m-315 -62 c4 -3 -24 -21 -61 -40
-202 -100 -317 -298 -338 -584 -8 -108 0 -159 25 -159 17 0 19 13 23 143 8
214 57 346 173 462 56 56 174 131 195 123 5 -2 -13 -37 -40 -80 -104 -160
-197 -373 -237 -542 -22 -90 -24 -339 -4 -441 17 -85 57 -201 82 -237 27 -37
24 -42 -12 -21 -62 36 -139 134 -195 248 -89 181 -132 393 -121 600 15 282
133 464 337 521 48 13 162 18 173 7z m209 -495 c3 -495 3 -503 23 -503 20 0
20 8 23 498 2 544 -1 515 60 483 38 -20 62 -48 121 -144 71 -114 153 -280 189
-384 48 -135 64 -228 64 -368 -1 -296 -96 -501 -270 -583 -64 -31 -72 -32
-192 -32 -115 0 -130 2 -182 27 -155 72 -242 226 -269 475 -24 224 20 429 143
677 50 101 141 248 182 294 26 30 75 60 98 62 4 0 9 -226 10 -502z m411 487
c82 -21 134 -50 186 -104 59 -60 106 -148 133 -248 31 -113 30 -337 -1 -483
-28 -130 -87 -284 -143 -370 -42 -65 -150 -180 -168 -180 -5 0 4 26 21 58 44
85 68 189 81 353 12 165 1 263 -47 420 -31 99 -132 310 -203 424 -28 44 -49
82 -47 83 8 8 94 -38 150 -80 144 -106 228 -313 224 -546 -2 -97 1 -108 24
-99 32 12 27 201 -8 337 -45 175 -164 329 -312 402 -39 20 -69 39 -66 42 12
11 119 6 176 -9z m-2374 -730 c44 -22 22 -39 -25 -19 -42 18 -135 18 -177 1
-33 -14 -57 -12 -57 4 0 4 21 15 48 24 59 19 165 14 211 -10z m-352 -51 c17
-5 7 -13 -58 -46 -147 -73 -260 -219 -304 -393 -21 -84 -36 -239 -29 -297 6
-41 10 -49 26 -46 18 3 20 13 22 128 5 285 107 471 314 575 30 15 55 25 57 23
3 -2 -23 -49 -57 -103 -110 -179 -186 -356 -225 -527 -24 -107 -22 -343 6
-466 22 -98 47 -164 82 -213 l22 -31 -30 16 c-115 59 -232 251 -288 471 -99
390 -21 731 196 858 76 45 200 68 266 51z m225 -999 c4 -4 14 -5 23 -2 13 6
15 64 15 502 0 475 1 495 19 495 59 0 155 -124 265 -345 125 -250 167 -434
148 -655 -6 -69 -18 -152 -27 -185 -66 -246 -244 -369 -497 -343 -226 22 -360
202 -388 522 -24 276 56 540 267 875 49 78 72 101 118 122 l40 18 5 -499 c3
-274 8 -502 12 -505z m480 957 c83 -40 149 -111 194 -205 47 -100 66 -197 66
-348 0 -240 -63 -467 -176 -638 -44 -66 -153 -177 -163 -167 -3 3 9 30 26 60
51 88 81 241 81 411 1 157 -13 246 -59 385 -35 104 -117 271 -191 391 -28 45
-49 84 -46 86 13 14 151 -75 204 -131 112 -120 162 -258 167 -459 2 -120 9
-143 35 -127 21 13 24 119 6 237 -36 240 -149 409 -331 499 -41 20 -75 39 -75
42 0 2 44 3 98 0 86 -3 107 -8 164 -36z"/>
</g>
</svg>
