<svg xmlns="http://www.w3.org/2000/svg" version="1.0" preserveAspectRatio="xMidYMid meet" viewBox="139.55 139.33 472.88 473.09">

<g transform="translate(0.000000,752.000000) scale(0.100000,-0.100000)" fill="#000000" stroke="none">
<path d="M3600 6124 c-589 -53 -1080 -273 -1484 -664 -388 -376 -618 -828 -702 -1380 -24 -158 -25 -481 -1 -640 83 -548 318 -1008 705 -1381 368 -355 802 -567 1322 -646 158 -23 482 -23 640 0 549 84 1008 317 1381 705 353 366 567 805 646 1322 23 158 23 482 0 640 -84 552 -319 1009 -713 1390 -354 341 -816 566 -1305 635 -112 16 -401 27 -489 19z m-868 -762 c29 -32 71 -92 92 -133 22 -41 40 -75 41 -77 2 -2 41 35 87 82 112 113 169 141 288 141 73 0 93 -4 142 -28 65 -32 151 -106 192 -166 l28 -40 69 73 c208 222 416 244 594 62 110 -112 185 -302 185 -466 l0 -78 63 26 c135 57 283 22 381 -90 63 -72 92 -136 130 -289 133 -529 63 -1000 -211 -1412 -26 -39 -111 -136 -189 -214 l-141 -142 30 -55 c16 -30 52 -82 79 -116 27 -34 48 -66 46 -71 -2 -5 -70 -67 -152 -139 -144 -126 -150 -130 -169 -113 -30 28 -121 153 -157 216 -17 31 -35 57 -38 57 -4 0 -50 -15 -102 -34 -132 -47 -309 -91 -319 -80 -11 12 -103 383 -97 393 3 4 31 13 63 20 93 21 243 71 306 102 l57 29 0 1018 c0 906 -2 1024 -16 1065 -9 26 -20 47 -25 47 -15 0 -127 -176 -175 -275 -24 -49 -55 -123 -69 -164 l-25 -75 0 -778 0 -778 -210 0 -209 0 -3 963 -3 962 -28 67 c-16 37 -25 72 -22 78 3 5 4 10 2 10 -7 0 -124 -211 -157 -285 -18 -38 -52 -122 -76 -185 l-44 -115 0 -757 0 -758 -210 0 -209 0 -3 963 -3 962 -28 90 c-15 50 -41 117 -57 149 l-28 60 116 168 c64 92 119 168 123 168 4 0 31 -26 61 -58z"/>
<path d="M4558 4223 c-25 -43 -60 -111 -77 -152 l-31 -74 2 -406 3 -406 29 44 c133 205 193 435 183 700 -5 139 -40 371 -56 371 -4 0 -28 -35 -53 -77z"/>
</g>
</svg>