<svg xmlns="http://www.w3.org/2000/svg" version="1.0" preserveAspectRatio="xMidYMid meet" viewBox="273 266 205.77 219.94">

<g transform="translate(0.000000,752.000000) scale(0.100000,-0.100000)" fill="#000000" stroke="none">
<path d="M3052 4845 c-40 -18 -59 -59 -79 -175 -11 -64 -13 -102 -5 -160 9 -75 9 -75 -23 -125 -42 -65 -49 -80 -69 -138 -57 -169 -31 -446 57 -612 41 -76 139 -180 213 -225 32 -19 105 -51 164 -70 l106 -35 -12 -40 c-7 -22 -13 -82 -13 -134 l-1 -94 -72 7 c-76 7 -149 34 -186 69 -13 12 -40 52 -59 90 -58 109 -181 207 -262 207 -37 0 -81 -38 -81 -69 0 -45 20 -71 79 -100 63 -32 94 -66 130 -144 61 -129 216 -217 384 -217 l67 0 0 -85 c0 -78 2 -88 25 -110 30 -31 73 -32 108 -5 l26 20 3 258 c3 278 4 283 64 355 30 36 31 78 2 112 -19 21 -39 28 -108 39 -118 19 -164 33 -241 71 -169 86 -251 244 -253 490 -1 145 14 198 83 289 26 34 50 70 54 79 4 10 -1 45 -9 80 -16 59 -15 199 0 215 8 7 109 -24 161 -51 22 -11 64 -35 93 -54 58 -39 61 -39 192 -8 115 27 366 26 483 -3 112 -28 126 -28 168 4 41 31 150 87 203 104 46 15 51 10 61 -65 4 -32 0 -79 -9 -126 -21 -100 -21 -101 21 -151 20 -23 50 -72 66 -108 27 -57 31 -78 35 -177 9 -253 -78 -427 -259 -519 -63 -31 -171 -62 -282 -79 -52 -8 -77 -36 -77 -83 0 -30 7 -45 30 -67 51 -49 60 -100 60 -358 l0 -229 29 -29 c38 -38 74 -38 113 1 l30 30 -4 253 c-4 202 -8 260 -21 294 l-16 43 42 10 c319 80 499 306 523 658 10 155 -25 296 -103 410 -28 41 -29 47 -20 95 20 110 -10 289 -57 344 -22 25 -30 28 -88 27 -79 -1 -148 -23 -267 -86 l-94 -49 -86 17 c-118 25 -371 25 -497 0 l-91 -17 -54 32 c-101 59 -251 110 -323 109 -11 -1 -36 -7 -54 -15z"/>
</g>
</svg>